<?xml version="1.0" encoding="UTF-8"?>
<!DOCTYPE svg PUBLIC "-//W3C//DTD SVG 1.1//EN" "http://www.w3.org/Graphics/SVG/1.1/DTD/svg11.dtd">
<svg xmlns="http://www.w3.org/2000/svg" version="1.1" width="225px" height="225px" style="shape-rendering:geometricPrecision; text-rendering:geometricPrecision; image-rendering:optimizeQuality; fill-rule:evenodd; clip-rule:evenodd" xmlns:xlink="http://www.w3.org/1999/xlink">
<g><path style="opacity:1" fill="#222628" d="M 132.5,28.5 C 130.274,26.82 128.607,27.1534 127.5,29.5C 125.824,28.8166 125.157,27.4832 125.5,25.5C 128.577,25.179 130.91,26.179 132.5,28.5 Z"/></g>
<g><path style="opacity:1" fill="#424a50" d="M 132.5,28.5 C 132.833,28.5 133.167,28.5 133.5,28.5C 135.102,31.3711 136.435,34.3711 137.5,37.5C 136.883,37.6107 136.383,37.944 136,38.5C 135.503,41.146 135.336,43.8127 135.5,46.5C 135.5,46.8333 135.5,47.1667 135.5,47.5C 132.028,46.9629 129.195,47.9629 127,50.5C 122.256,49.9359 117.423,49.9359 112.5,50.5C 113.209,49.596 114.209,49.2627 115.5,49.5C 119.172,48.9794 122.838,48.3128 126.5,47.5C 125.675,46.6143 124.675,46.281 123.5,46.5C 123.389,45.8826 123.056,45.3826 122.5,45C 123.667,44.8333 124.833,44.6667 126,44.5C 128.761,45.4176 131.594,46.0843 134.5,46.5C 134.665,43.4816 134.498,40.4816 134,37.5C 133.617,36.944 133.117,36.6107 132.5,36.5C 131.874,33.3934 130.208,31.0601 127.5,29.5C 128.607,27.1534 130.274,26.82 132.5,28.5 Z"/></g>
<g><path style="opacity:1" fill="#141515" d="M 152.5,42.5 C 152.167,42.5 151.833,42.5 151.5,42.5C 151.183,38.8284 152.849,37.1617 156.5,37.5C 156.5,36.5 156.5,35.5 156.5,34.5C 154.435,34.5172 152.435,34.8505 150.5,35.5C 152.279,33.6565 154.612,32.9898 157.5,33.5C 157.5,35.1667 157.5,36.8333 157.5,38.5C 154.454,38.1826 152.787,39.5159 152.5,42.5 Z"/></g>
<g><path style="opacity:1" fill="#0a0b0b" d="M 127.5,29.5 C 130.208,31.0601 131.874,33.3934 132.5,36.5C 127.36,37.4881 122.026,37.8214 116.5,37.5C 121.316,36.6739 126.316,36.1739 131.5,36C 129.783,34.0643 128.449,31.8976 127.5,29.5 Z"/></g>
<g><path style="opacity:1" fill="#101212" d="M 133.5,28.5 C 134.15,28.8039 134.817,29.1373 135.5,29.5C 136.774,32.3243 138.274,34.991 140,37.5C 141.57,36.6422 143.237,35.9755 145,35.5C 146.826,36.6733 148.659,36.6733 150.5,35.5C 149.713,37.1042 148.38,37.7709 146.5,37.5C 143.956,37.1043 141.789,37.771 140,39.5C 139.617,38.944 139.117,38.6107 138.5,38.5C 138.5,37.8333 138.167,37.5 137.5,37.5C 136.435,34.3711 135.102,31.3711 133.5,28.5 Z"/></g>
<g><path style="opacity:1" fill="#3b3e45" d="M 151.5,42.5 C 150.778,42.0825 150.278,41.4158 150,40.5C 148.334,41.3402 148.167,40.8402 149.5,39C 148.263,38.7679 147.263,38.2679 146.5,37.5C 148.38,37.7709 149.713,37.1042 150.5,35.5C 152.435,34.8505 154.435,34.5172 156.5,34.5C 156.5,35.5 156.5,36.5 156.5,37.5C 152.849,37.1617 151.183,38.8284 151.5,42.5 Z"/></g>
<g><path style="opacity:1" fill="#21252a" d="M 116.5,37.5 C 116.5,38.1667 116.5,38.8333 116.5,39.5C 111.962,39.7024 107.629,40.7024 103.5,42.5C 107.252,39.7474 111.585,38.0808 116.5,37.5 Z"/></g>
<g><path style="opacity:1" fill="#698394" d="M 132.5,36.5 C 133.117,36.6107 133.617,36.944 134,37.5C 134.498,40.4816 134.665,43.4816 134.5,46.5C 131.594,46.0843 128.761,45.4176 126,44.5C 124.833,44.6667 123.667,44.8333 122.5,45C 123.056,45.3826 123.389,45.8826 123.5,46.5C 121.821,46.7148 120.821,46.0481 120.5,44.5C 122.277,43.3995 124.277,42.5662 126.5,42C 122.912,41.8529 119.579,41.0195 116.5,39.5C 116.5,38.8333 116.5,38.1667 116.5,37.5C 122.026,37.8214 127.36,37.4881 132.5,36.5 Z"/></g>
<g><path style="opacity:1" fill="#7996a4" d="M 116.5,39.5 C 119.579,41.0195 122.912,41.8529 126.5,42C 124.277,42.5662 122.277,43.3995 120.5,44.5C 117.482,44.3354 114.482,44.502 111.5,45C 109.68,45.2004 108.347,46.0337 107.5,47.5C 104.892,47.4003 102.558,48.0669 100.5,49.5C 100.5,48.5 100.5,47.5 100.5,46.5C 104.971,46.3276 105.304,45.4943 101.5,44C 102.416,43.7216 103.082,43.2216 103.5,42.5C 107.629,40.7024 111.962,39.7024 116.5,39.5 Z"/></g>
<g><path style="opacity:1" fill="#0c1013" d="M 100.5,42.5 C 99.7886,44.2014 98.4553,45.2014 96.5,45.5C 97.2114,43.7986 98.5447,42.7986 100.5,42.5 Z"/></g>
<g><path style="opacity:1" fill="#5b6d72" d="M 146.5,37.5 C 147.263,38.2679 148.263,38.7679 149.5,39C 148.167,40.8402 148.334,41.3402 150,40.5C 150.278,41.4158 150.778,42.0825 151.5,42.5C 151.5,42.8333 151.5,43.1667 151.5,43.5C 149.678,43.8308 148.011,44.4975 146.5,45.5C 147.292,44.0331 147.292,42.6998 146.5,41.5C 144.139,43.1939 142.139,45.1939 140.5,47.5C 139.949,45.5868 139.782,43.5868 140,41.5C 138.658,42.9023 137.824,42.5689 137.5,40.5C 137.543,39.5836 137.876,38.9169 138.5,38.5C 139.117,38.6107 139.617,38.944 140,39.5C 141.789,37.771 143.956,37.1043 146.5,37.5 Z"/></g>
<g><path style="opacity:1" fill="#2b3a41" d="M 151.5,43.5 C 151.5,43.1667 151.5,42.8333 151.5,42.5C 151.833,42.5 152.167,42.5 152.5,42.5C 156.93,42.3259 160.264,43.9925 162.5,47.5C 158.833,46.1663 155.166,44.833 151.5,43.5 Z"/></g>
<g><path style="opacity:1" fill="#0d1818" d="M 96.5,45.5 C 95.3285,46.3446 93.9952,47.0113 92.5,47.5C 93.1834,45.8235 94.5168,45.1568 96.5,45.5 Z"/></g>
<g><path style="opacity:1" fill="#5b7c86" d="M 100.5,42.5 C 101.5,42.5 102.5,42.5 103.5,42.5C 103.082,43.2216 102.416,43.7216 101.5,44C 105.304,45.4943 104.971,46.3276 100.5,46.5C 100.5,47.5 100.5,48.5 100.5,49.5C 98.8002,49.3739 97.3002,48.7073 96,47.5C 94.415,48.0439 92.915,48.7106 91.5,49.5C 91.3284,48.5084 91.6618,47.8417 92.5,47.5C 93.9952,47.0113 95.3285,46.3446 96.5,45.5C 98.4553,45.2014 99.7886,44.2014 100.5,42.5 Z"/></g>
<g><path style="opacity:1" fill="#a2afbb" d="M 120.5,44.5 C 120.821,46.0481 121.821,46.7148 123.5,46.5C 124.675,46.281 125.675,46.6143 126.5,47.5C 122.838,48.3128 119.172,48.9794 115.5,49.5C 116.29,48.2058 117.29,47.0391 118.5,46C 114.742,45.6873 111.076,46.1873 107.5,47.5C 108.347,46.0337 109.68,45.2004 111.5,45C 114.482,44.502 117.482,44.3354 120.5,44.5 Z"/></g>
<g><path style="opacity:1" fill="#d4e1e7" d="M 115.5,49.5 C 114.209,49.2627 113.209,49.596 112.5,50.5C 109.285,50.9049 106.285,51.9049 103.5,53.5C 100.807,54.5515 98.1402,55.5515 95.5,56.5C 95.238,55.0222 95.5713,53.6888 96.5,52.5C 98.261,51.9649 99.5943,50.9649 100.5,49.5C 102.558,48.0669 104.892,47.4003 107.5,47.5C 111.076,46.1873 114.742,45.6873 118.5,46C 117.29,47.0391 116.29,48.2058 115.5,49.5 Z"/></g>
<g><path style="opacity:1" fill="#323b44" d="M 137.5,37.5 C 138.167,37.5 138.5,37.8333 138.5,38.5C 137.876,38.9169 137.543,39.5836 137.5,40.5C 137.824,42.5689 138.658,42.9023 140,41.5C 139.782,43.5868 139.949,45.5868 140.5,47.5C 142.139,45.1939 144.139,43.1939 146.5,41.5C 147.292,42.6998 147.292,44.0331 146.5,45.5C 144.744,46.5521 144.077,48.2188 144.5,50.5C 142.718,49.2804 140.718,48.6138 138.5,48.5C 138.666,44.6266 137.666,43.9599 135.5,46.5C 135.336,43.8127 135.503,41.146 136,38.5C 136.383,37.944 136.883,37.6107 137.5,37.5 Z"/></g>
<g><path style="opacity:1" fill="#283032" d="M 162.5,47.5 C 166.474,48.6455 169.474,50.9788 171.5,54.5C 168.231,52.383 165.231,50.0496 162.5,47.5 Z"/></g>
<g><path style="opacity:1" fill="#1f292f" d="M 91.5,49.5 C 91.5,49.8333 91.5,50.1667 91.5,50.5C 88.8127,50.3359 86.146,50.5026 83.5,51C 81.3039,52.6993 79.3039,54.5327 77.5,56.5C 79.9069,50.0734 84.5735,47.7401 91.5,49.5 Z"/></g>
<g><path style="opacity:1" fill="#1d1f23" d="M 135.5,47.5 C 135.082,48.2216 134.416,48.7216 133.5,49C 135.053,50.0968 136.386,51.4301 137.5,53C 136.78,55.1223 135.613,55.6223 134,54.5C 133.311,55.3567 132.478,56.0233 131.5,56.5C 129.039,55.3981 126.539,55.3981 124,56.5C 122.244,55.195 120.577,54.5284 119,54.5C 118.536,55.0944 118.369,55.7611 118.5,56.5C 115.833,57.8333 113.167,59.1667 110.5,60.5C 111.871,58.1334 113.871,56.4667 116.5,55.5C 117.833,54.5 117.833,53.5 116.5,52.5C 110.187,55.7097 104.187,59.3763 98.5,63.5C 97.6236,63.6309 96.9569,63.2975 96.5,62.5C 97.3094,60.9291 97.6427,59.2624 97.5,57.5C 99.1667,56.8333 100.833,56.1667 102.5,55.5C 106.052,54.2089 109.386,52.5422 112.5,50.5C 117.423,49.9359 122.256,49.9359 127,50.5C 129.195,47.9629 132.028,46.9629 135.5,47.5 Z"/></g>
<g><path style="opacity:1" fill="#54585b" d="M 112.5,50.5 C 109.386,52.5422 106.052,54.2089 102.5,55.5C 102.833,54.8333 103.167,54.1667 103.5,53.5C 106.285,51.9049 109.285,50.9049 112.5,50.5 Z"/></g>
<g><path style="opacity:1" fill="#7b7f7f" d="M 148.5,53.5 C 149.167,53.5 149.833,53.5 150.5,53.5C 150.833,54.1667 151.167,54.8333 151.5,55.5C 149.973,55.573 148.973,54.9063 148.5,53.5 Z"/></g>
<g><path style="opacity:1" fill="#08070f" d="M 171.5,54.5 C 172.833,54.5 173.5,55.1667 173.5,56.5C 172.5,56.1667 171.833,55.5 171.5,54.5 Z"/></g>
<g><path style="opacity:1" fill="#799aaa" d="M 100.5,49.5 C 99.5943,50.9649 98.261,51.9649 96.5,52.5C 95.5713,53.6888 95.238,55.0222 95.5,56.5C 98.1402,55.5515 100.807,54.5515 103.5,53.5C 103.167,54.1667 102.833,54.8333 102.5,55.5C 100.833,56.1667 99.1667,56.8333 97.5,57.5C 96.8333,57.8333 96.1667,58.1667 95.5,58.5C 94.5,58.5 93.5,58.5 92.5,58.5C 92.1667,57.8333 91.8333,57.1667 91.5,56.5C 90.7249,54.3881 90.7249,52.3881 91.5,50.5C 91.5,50.1667 91.5,49.8333 91.5,49.5C 92.915,48.7106 94.415,48.0439 96,47.5C 97.3002,48.7073 98.8002,49.3739 100.5,49.5 Z"/></g>
<g><path style="opacity:1" fill="#aba6ab" d="M 152.5,55.5 C 156.071,55.5607 158.404,57.2274 159.5,60.5C 158.391,60.4431 157.391,60.1098 156.5,59.5C 154.861,58.5275 153.527,57.1942 152.5,55.5 Z"/></g>
<g><path style="opacity:1" fill="#1c323c" d="M 77.5,56.5 C 76.7659,57.7079 76.4326,59.0413 76.5,60.5C 75.391,60.5569 74.391,60.8902 73.5,61.5C 74.2794,59.323 75.6127,57.6563 77.5,56.5 Z"/></g>
<g><path style="opacity:1" fill="#464949" d="M 110.5,60.5 C 110.167,60.5 109.833,60.5 109.5,60.5C 108.262,59.5876 106.928,59.4209 105.5,60C 103.296,62.5945 100.63,64.4278 97.5,65.5C 97.8333,64.8333 98.1667,64.1667 98.5,63.5C 104.187,59.3763 110.187,55.7097 116.5,52.5C 117.833,53.5 117.833,54.5 116.5,55.5C 113.871,56.4667 111.871,58.1334 110.5,60.5 Z"/></g>
<g><path style="opacity:1" fill="#1d1c1b" d="M 144.5,50.5 C 145.5,50.5 146.5,50.5 147.5,50.5C 147.263,51.791 147.596,52.791 148.5,53.5C 148.973,54.9063 149.973,55.573 151.5,55.5C 151.833,55.5 152.167,55.5 152.5,55.5C 153.527,57.1942 154.861,58.5275 156.5,59.5C 156.574,61.4109 157.574,62.5776 159.5,63C 157.633,63.7112 156.133,63.2112 155,61.5C 154.922,63.6565 154.755,65.6565 154.5,67.5C 157.506,68.5197 158.673,70.5197 158,73.5C 155.76,70.7068 154.26,71.0401 153.5,74.5C 148.867,73.1689 144.201,72.8356 139.5,73.5C 137.458,74.5032 137.125,75.8366 138.5,77.5C 134.302,80.8586 131.802,84.8586 131,89.5C 130.667,88.8333 130.333,88.1667 130,87.5C 129.401,89.5348 129.901,91.2015 131.5,92.5C 131.5,93.8333 131.5,95.1667 131.5,96.5C 127.86,95.2816 123.86,95.2816 119.5,96.5C 117.735,95.5386 115.735,95.2053 113.5,95.5C 113.5,96.8333 113.5,98.1667 113.5,99.5C 108.597,99.6935 108.264,101.027 112.5,103.5C 109.391,103.264 106.391,103.597 103.5,104.5C 101.533,103.073 99.8661,101.239 98.5,99C 99.3396,97.8288 100.173,96.6621 101,95.5C 101.333,96.8333 101.667,98.1667 102,99.5C 103.772,98.0099 103.939,96.3432 102.5,94.5C 102.957,93.7025 103.624,93.3691 104.5,93.5C 106.399,96.3996 109.066,98.0663 112.5,98.5C 112.5,95.8333 112.5,93.1667 112.5,90.5C 113.29,89.3915 113.79,88.0581 114,86.5C 114.667,87.1667 115.333,87.8333 116,88.5C 116.816,87.1772 117.983,86.5106 119.5,86.5C 124.405,85.1259 126.405,81.7925 125.5,76.5C 126.158,77.3984 126.824,78.3984 127.5,79.5C 127.833,78.8333 128.167,78.1667 128.5,77.5C 128.226,73.5824 127.226,69.9157 125.5,66.5C 128.121,64.1282 127.788,63.4616 124.5,64.5C 121.982,62.0877 119.982,59.421 118.5,56.5C 118.369,55.7611 118.536,55.0944 119,54.5C 120.577,54.5284 122.244,55.195 124,56.5C 126.539,55.3981 129.039,55.3981 131.5,56.5C 132.478,56.0233 133.311,55.3567 134,54.5C 135.613,55.6223 136.78,55.1223 137.5,53C 136.386,51.4301 135.053,50.0968 133.5,49C 134.416,48.7216 135.082,48.2216 135.5,47.5C 135.5,47.1667 135.5,46.8333 135.5,46.5C 137.666,43.9599 138.666,44.6266 138.5,48.5C 140.718,48.6138 142.718,49.2804 144.5,50.5 Z"/></g>
<g><path style="opacity:1" fill="#19191a" d="M 118.5,56.5 C 119.982,59.421 121.982,62.0877 124.5,64.5C 127.788,63.4616 128.121,64.1282 125.5,66.5C 127.226,69.9157 128.226,73.5824 128.5,77.5C 128.167,78.1667 127.833,78.8333 127.5,79.5C 126.824,78.3984 126.158,77.3984 125.5,76.5C 126.018,75.4226 126.352,74.2559 126.5,73C 125.524,70.8819 124.69,68.7152 124,66.5C 121.602,66.0418 119.936,64.7085 119,62.5C 115.503,64.8328 111.836,66.8328 108,68.5C 107.667,70.5 107.333,72.5 107,74.5C 106.107,73.2888 105.274,73.2888 104.5,74.5C 105.807,75.865 105.807,77.1984 104.5,78.5C 103.648,83.5385 103.648,88.5385 104.5,93.5C 103.624,93.3691 102.957,93.7025 102.5,94.5C 103.939,96.3432 103.772,98.0099 102,99.5C 101.667,98.1667 101.333,96.8333 101,95.5C 100.173,96.6621 99.3396,97.8288 98.5,99C 99.8661,101.239 101.533,103.073 103.5,104.5C 102.167,104.5 100.833,104.5 99.5,104.5C 99.5,105.833 99.5,107.167 99.5,108.5C 101.483,108.157 102.817,108.824 103.5,110.5C 103.167,110.5 102.833,110.5 102.5,110.5C 100.032,109.432 97.6988,108.098 95.5,106.5C 96.2625,105.732 97.2625,105.232 98.5,105C 96.765,104.349 95.0983,104.515 93.5,105.5C 93.1667,104.833 92.8333,104.167 92.5,103.5C 93.9301,98.9171 94.9301,94.2504 95.5,89.5C 95.5,89.1667 95.5,88.8333 95.5,88.5C 96.5375,87.0697 97.2041,85.403 97.5,83.5C 99.0744,83.0629 100.241,82.0629 101,80.5C 101.932,76.7439 103.099,73.0772 104.5,69.5C 106.432,66.6339 108.099,63.6339 109.5,60.5C 109.833,60.5 110.167,60.5 110.5,60.5C 113.167,59.1667 115.833,57.8333 118.5,56.5 Z"/></g>
<g><path style="opacity:1" fill="#6493b1" d="M 91.5,50.5 C 90.7249,52.3881 90.7249,54.3881 91.5,56.5C 90.1932,55.8466 88.8599,55.1799 87.5,54.5C 83.2781,56.5541 80.2781,59.7207 78.5,64C 77.0544,65.298 75.7211,65.4646 74.5,64.5C 74.7329,62.9382 75.3995,61.6049 76.5,60.5C 76.4326,59.0413 76.7659,57.7079 77.5,56.5C 79.3039,54.5327 81.3039,52.6993 83.5,51C 86.146,50.5026 88.8127,50.3359 91.5,50.5 Z"/></g>
<g><path style="opacity:1" fill="#6f909c" d="M 151.5,43.5 C 155.166,44.833 158.833,46.1663 162.5,47.5C 165.231,50.0496 168.231,52.383 171.5,54.5C 171.833,55.5 172.5,56.1667 173.5,56.5C 174.167,56.5 174.5,56.8333 174.5,57.5C 178.093,63.0914 180.759,69.0914 182.5,75.5C 180.989,76.5025 179.322,77.1692 177.5,77.5C 177.784,75.5853 177.451,73.9187 176.5,72.5C 175.589,68.7501 173.589,65.7501 170.5,63.5C 166.859,60.1951 163.192,56.8617 159.5,53.5C 159.389,52.8826 159.056,52.3826 158.5,52C 156.833,51.8333 155.167,51.6667 153.5,51.5C 151.36,51.5561 149.694,52.2227 148.5,53.5C 147.596,52.791 147.263,51.791 147.5,50.5C 146.5,50.5 145.5,50.5 144.5,50.5C 144.077,48.2188 144.744,46.5521 146.5,45.5C 148.011,44.4975 149.678,43.8308 151.5,43.5 Z"/></g>
<g><path style="opacity:1" fill="#abcad0" d="M 159.5,53.5 C 156.362,52.3187 153.362,52.3187 150.5,53.5C 149.833,53.5 149.167,53.5 148.5,53.5C 149.694,52.2227 151.36,51.5561 153.5,51.5C 155.167,51.6667 156.833,51.8333 158.5,52C 159.056,52.3826 159.389,52.8826 159.5,53.5 Z"/></g>
<g><path style="opacity:1" fill="#1b2227" d="M 174.5,57.5 C 176.454,60.0156 178.454,62.6823 180.5,65.5C 181.632,68.824 182.632,72.1574 183.5,75.5C 183.167,75.5 182.833,75.5 182.5,75.5C 180.759,69.0914 178.093,63.0914 174.5,57.5 Z"/></g>
<g><path style="opacity:1" fill="#696f6f" d="M 161.5,62.5 C 162.906,62.9731 163.573,63.9731 163.5,65.5C 162.094,65.0269 161.427,64.0269 161.5,62.5 Z"/></g>
<g><path style="opacity:1" fill="#0b1416" d="M 73.5,61.5 C 72.7659,62.7079 72.4326,64.0413 72.5,65.5C 71.8333,65.5 71.1667,65.5 70.5,65.5C 70.7986,63.5447 71.7986,62.2114 73.5,61.5 Z"/></g>
<g><path style="opacity:1" fill="#abc3cd" d="M 170.5,63.5 C 173.589,65.7501 175.589,68.7501 176.5,72.5C 174.14,69.7815 172.14,66.7815 170.5,63.5 Z"/></g>
<g><path style="opacity:1" fill="#060606" d="M 125.5,76.5 C 126.405,81.7925 124.405,85.1259 119.5,86.5C 117.983,86.5106 116.816,87.1772 116,88.5C 115.333,87.8333 114.667,87.1667 114,86.5C 113.79,88.0581 113.29,89.3915 112.5,90.5C 112.261,88.5328 112.594,86.6995 113.5,85C 117.089,84.9632 120.422,84.1299 123.5,82.5C 123.833,81.3333 124.167,80.1667 124.5,79C 123.283,75.4088 121.95,71.9088 120.5,68.5C 117.428,68.1826 114.428,68.5159 111.5,69.5C 109.384,72.765 107.051,75.765 104.5,78.5C 105.807,77.1984 105.807,75.865 104.5,74.5C 105.274,73.2888 106.107,73.2888 107,74.5C 107.333,72.5 107.667,70.5 108,68.5C 111.836,66.8328 115.503,64.8328 119,62.5C 119.936,64.7085 121.602,66.0418 124,66.5C 124.69,68.7152 125.524,70.8819 126.5,73C 126.352,74.2559 126.018,75.4226 125.5,76.5 Z"/></g>
<g><path style="opacity:1" fill="#5ba4d2" d="M 91.5,56.5 C 91.8333,57.1667 92.1667,57.8333 92.5,58.5C 91.1667,58.5 90.5,59.1667 90.5,60.5C 85.8452,65.1392 82.1785,70.4726 79.5,76.5C 78.5416,76.9528 77.7083,77.6195 77,78.5C 75.9887,77.6634 74.8221,77.33 73.5,77.5C 72.1556,72.9422 72.4889,68.6089 74.5,64.5C 75.7211,65.4646 77.0544,65.298 78.5,64C 80.2781,59.7207 83.2781,56.5541 87.5,54.5C 88.8599,55.1799 90.1932,55.8466 91.5,56.5 Z"/></g>
<g><path style="opacity:1" fill="#646464" d="M 109.5,60.5 C 108.099,63.6339 106.432,66.6339 104.5,69.5C 104.167,69.5 103.833,69.5 103.5,69.5C 103.294,67.4508 102.461,67.1175 101,68.5C 100.612,67.572 99.9454,66.9054 99,66.5C 97.8261,67.5442 96.6594,68.5442 95.5,69.5C 95.2291,67.6203 95.8958,66.287 97.5,65.5C 100.63,64.4278 103.296,62.5945 105.5,60C 106.928,59.4209 108.262,59.5876 109.5,60.5 Z"/></g>
<g><path style="opacity:1" fill="#e1eeef" d="M 159.5,53.5 C 163.192,56.8617 166.859,60.1951 170.5,63.5C 172.14,66.7815 174.14,69.7815 176.5,72.5C 176.808,74.924 176.474,77.2573 175.5,79.5C 174.482,78.8075 173.482,78.1408 172.5,77.5C 172.573,75.9731 171.906,74.9731 170.5,74.5C 170.573,72.9731 169.906,71.9731 168.5,71.5C 166.823,69.4602 165.156,67.4602 163.5,65.5C 163.573,63.9731 162.906,62.9731 161.5,62.5C 161.167,61.5 160.5,60.8333 159.5,60.5C 158.404,57.2274 156.071,55.5607 152.5,55.5C 152.167,55.5 151.833,55.5 151.5,55.5C 151.167,54.8333 150.833,54.1667 150.5,53.5C 153.362,52.3187 156.362,52.3187 159.5,53.5 Z"/></g>
<g><path style="opacity:1" fill="#797a7b" d="M 103.5,69.5 C 102.11,70.8993 101.11,72.5659 100.5,74.5C 97.2903,78.4515 95.6236,83.1182 95.5,88.5C 95.5,88.8333 95.5,89.1667 95.5,89.5C 94.8826,89.6107 94.3826,89.944 94,90.5C 93.6894,94.0899 92.856,97.4233 91.5,100.5C 91.5,98.5 91.5,96.5 91.5,94.5C 92.236,91.3046 92.9027,87.9713 93.5,84.5C 92.0493,83.094 90.7159,81.594 89.5,80C 91.0526,78.9032 92.386,77.5699 93.5,76C 91.1395,76.7978 88.8061,77.9645 86.5,79.5C 88.0823,74.9164 91.0823,71.5831 95.5,69.5C 96.6594,68.5442 97.8261,67.5442 99,66.5C 99.9454,66.9054 100.612,67.572 101,68.5C 102.461,67.1175 103.294,67.4508 103.5,69.5 Z"/></g>
<g><path style="opacity:1" fill="#6b6f66" d="M 168.5,71.5 C 169.906,71.9731 170.573,72.9731 170.5,74.5C 169.094,74.0269 168.427,73.0269 168.5,71.5 Z"/></g>
<g><path style="opacity:1" fill="#1d1d1d" d="M 156.5,59.5 C 157.391,60.1098 158.391,60.4431 159.5,60.5C 160.5,60.8333 161.167,61.5 161.5,62.5C 161.427,64.0269 162.094,65.0269 163.5,65.5C 165.156,67.4602 166.823,69.4602 168.5,71.5C 168.427,73.0269 169.094,74.0269 170.5,74.5C 170.427,76.0269 171.094,77.0269 172.5,77.5C 172.557,78.609 172.89,79.609 173.5,80.5C 173.5,81.1667 173.5,81.8333 173.5,82.5C 172.391,82.5569 171.391,82.8902 170.5,83.5C 170.631,82.7611 170.464,82.0944 170,81.5C 169.293,83.0806 168.46,84.5806 167.5,86C 168.097,87.6282 167.763,89.2949 166.5,91C 168.459,92.6842 168.459,94.6842 166.5,97C 167.227,98.3988 167.727,99.8988 168,101.5C 170.109,102.035 170.609,103.035 169.5,104.5C 172.345,108.518 174.345,112.851 175.5,117.5C 174.209,117.263 173.209,117.596 172.5,118.5C 172.5,118.833 172.5,119.167 172.5,119.5C 171.5,119.5 170.5,119.5 169.5,119.5C 168.448,117.744 166.781,117.077 164.5,117.5C 164.586,116.504 164.252,115.671 163.5,115C 160.294,114.704 157.128,114.204 154,113.5C 153.055,113.905 152.388,114.572 152,115.5C 151.257,113.559 151.424,111.726 152.5,110C 150.793,109.805 149.126,109.805 147.5,110C 148.191,108.933 148.691,107.766 149,106.5C 151.129,107.863 151.629,107.529 150.5,105.5C 151.376,104.749 152.376,104.249 153.5,104C 152.944,103.617 152.611,103.117 152.5,102.5C 154.273,101.686 154.773,100.352 154,98.5C 153.465,100.271 152.631,100.604 151.5,99.5C 152.531,98.2997 153.365,96.9663 154,95.5C 154.414,95.9574 154.914,96.2907 155.5,96.5C 156.314,93.5815 157.314,90.7481 158.5,88C 157.747,86.513 156.914,86.3463 156,87.5C 155.471,85.4153 155.971,83.582 157.5,82C 156.999,78.9515 155.666,76.4515 153.5,74.5C 154.26,71.0401 155.76,70.7068 158,73.5C 158.673,70.5197 157.506,68.5197 154.5,67.5C 154.755,65.6565 154.922,63.6565 155,61.5C 156.133,63.2112 157.633,63.7112 159.5,63C 157.574,62.5776 156.574,61.4109 156.5,59.5 Z"/></g>
<g><path style="opacity:1" fill="#4e7691" d="M 92.5,58.5 C 93.5,58.5 94.5,58.5 95.5,58.5C 95.6567,59.8734 95.49,61.2068 95,62.5C 90.9548,68.0897 86.7881,73.5897 82.5,79C 79.02,79.0738 75.3533,79.2404 71.5,79.5C 71.4467,76.8597 70.78,74.3597 69.5,72C 70.5222,69.8089 71.5222,67.6422 72.5,65.5C 72.4326,64.0413 72.7659,62.7079 73.5,61.5C 74.391,60.8902 75.391,60.5569 76.5,60.5C 75.3995,61.6049 74.7329,62.9382 74.5,64.5C 72.4889,68.6089 72.1556,72.9422 73.5,77.5C 74.8221,77.33 75.9887,77.6634 77,78.5C 77.7083,77.6195 78.5416,76.9528 79.5,76.5C 80.1174,76.6107 80.6174,76.944 81,77.5C 84.6897,73.1268 88.0231,68.4602 91,63.5C 91.7401,62.2506 91.5735,61.2506 90.5,60.5C 90.5,59.1667 91.1667,58.5 92.5,58.5 Z"/></g>
<g><path style="opacity:1" fill="#366c91" d="M 90.5,60.5 C 91.5735,61.2506 91.7401,62.2506 91,63.5C 88.0231,68.4602 84.6897,73.1268 81,77.5C 80.6174,76.944 80.1174,76.6107 79.5,76.5C 82.1785,70.4726 85.8452,65.1392 90.5,60.5 Z"/></g>
<g><path style="opacity:1" fill="#7a8076" d="M 170.5,74.5 C 171.906,74.9731 172.573,75.9731 172.5,77.5C 171.094,77.0269 170.427,76.0269 170.5,74.5 Z"/></g>
<g><path style="opacity:1" fill="#2c2726" d="M 103.5,69.5 C 103.833,69.5 104.167,69.5 104.5,69.5C 103.099,73.0772 101.932,76.7439 101,80.5C 100.241,82.0629 99.0744,83.0629 97.5,83.5C 98.9532,80.7024 99.9532,77.7024 100.5,74.5C 101.11,72.5659 102.11,70.8993 103.5,69.5 Z"/></g>
<g><path style="opacity:1" fill="#162528" d="M 183.5,75.5 C 184.931,76.0819 186.264,76.9152 187.5,78C 188.252,78.6708 188.586,79.5041 188.5,80.5C 187.5,79.8333 186.5,79.1667 185.5,78.5C 184.599,77.7095 183.932,76.7095 183.5,75.5 Z"/></g>
<g><path style="opacity:1" fill="#0f0f0e" d="M 153.5,74.5 C 155.666,76.4515 156.999,78.9515 157.5,82C 155.971,83.582 155.471,85.4153 156,87.5C 156.914,86.3463 157.747,86.513 158.5,88C 157.314,90.7481 156.314,93.5815 155.5,96.5C 154.914,96.2907 154.414,95.9574 154,95.5C 153.365,96.9663 152.531,98.2997 151.5,99.5C 152.631,100.604 153.465,100.271 154,98.5C 154.773,100.352 154.273,101.686 152.5,102.5C 149.547,102.15 147.213,103.15 145.5,105.5C 147.226,102.4 149.226,99.3996 151.5,96.5C 154.968,88.827 153.968,81.9937 148.5,76C 145.448,75.4508 142.781,76.2842 140.5,78.5C 138.506,81.8253 136.506,85.1586 134.5,88.5C 142.26,88.5819 144.926,92.2485 142.5,99.5C 141.735,100.612 140.735,101.279 139.5,101.5C 139.5,100.833 139.167,100.5 138.5,100.5C 137.5,100.5 136.5,100.5 135.5,100.5C 135.204,98.597 134.537,96.9303 133.5,95.5C 134.007,94.1411 135.007,93.1411 136.5,92.5C 134.701,91.2121 133.035,91.2121 131.5,92.5C 129.901,91.2015 129.401,89.5348 130,87.5C 130.333,88.1667 130.667,88.8333 131,89.5C 131.802,84.8586 134.302,80.8586 138.5,77.5C 137.125,75.8366 137.458,74.5032 139.5,73.5C 144.201,72.8356 148.867,73.1689 153.5,74.5 Z"/></g>
<g><path style="opacity:1" fill="#97b4c0" d="M 176.5,72.5 C 177.451,73.9187 177.784,75.5853 177.5,77.5C 177.5,78.5 177.5,79.5 177.5,80.5C 176.5,80.5 175.5,80.5 174.5,80.5C 174.167,80.5 173.833,80.5 173.5,80.5C 172.89,79.609 172.557,78.609 172.5,77.5C 173.482,78.1408 174.482,78.8075 175.5,79.5C 176.474,77.2573 176.808,74.924 176.5,72.5 Z"/></g>
<g><path style="opacity:1" fill="#4a4848" d="M 100.5,74.5 C 99.9532,77.7024 98.9532,80.7024 97.5,83.5C 97.2041,85.403 96.5375,87.0697 95.5,88.5C 95.6236,83.1182 97.2903,78.4515 100.5,74.5 Z"/></g>
<g><path style="opacity:1" fill="#22313c" d="M 97.5,57.5 C 97.6427,59.2624 97.3094,60.9291 96.5,62.5C 96.9569,63.2975 97.6236,63.6309 98.5,63.5C 98.1667,64.1667 97.8333,64.8333 97.5,65.5C 95.8958,66.287 95.2291,67.6203 95.5,69.5C 91.0823,71.5831 88.0823,74.9164 86.5,79.5C 84.5,82.5 82.5,85.5 80.5,88.5C 80.3832,86.5165 81.0499,84.8498 82.5,83.5C 77.9137,80.7118 73.7471,81.0452 70,84.5C 69.4209,83.0715 69.5876,81.7382 70.5,80.5C 70.212,77.6034 69.5454,74.7701 68.5,72C 69.0911,69.761 69.7578,67.5943 70.5,65.5C 71.1667,65.5 71.8333,65.5 72.5,65.5C 71.5222,67.6422 70.5222,69.8089 69.5,72C 70.78,74.3597 71.4467,76.8597 71.5,79.5C 75.3533,79.2404 79.02,79.0738 82.5,79C 86.7881,73.5897 90.9548,68.0897 95,62.5C 95.49,61.2068 95.6567,59.8734 95.5,58.5C 96.1667,58.1667 96.8333,57.8333 97.5,57.5 Z"/></g>
<g><path style="opacity:1" fill="#1c1c1e" d="M 70.5,80.5 C 69.5876,81.7382 69.4209,83.0715 70,84.5C 73.7471,81.0452 77.9137,80.7118 82.5,83.5C 81.0499,84.8498 80.3832,86.5165 80.5,88.5C 79.962,90.1172 79.6287,91.7839 79.5,93.5C 78.2876,94.2299 77.2876,95.2299 76.5,96.5C 75.1482,95.4756 73.8149,94.4756 72.5,93.5C 71.3226,91.9685 69.9893,90.4685 68.5,89C 67.552,88.5172 66.552,88.3505 65.5,88.5C 65.634,90.2915 65.3007,91.9582 64.5,93.5C 64.5,94.1667 64.5,94.8333 64.5,95.5C 63.1001,96.0998 62.1001,97.0998 61.5,98.5C 62.944,91.6118 65.944,85.6118 70.5,80.5 Z"/></g>
<g><path style="opacity:1" fill="#8d8f93" d="M 91.5,94.5 C 90.5826,94.4936 90.0826,95.4936 90,97.5C 89.6667,96.8333 89.3333,96.1667 89,95.5C 87.0584,97.9548 84.5584,99.2882 81.5,99.5C 81.5,101.167 81.5,102.833 81.5,104.5C 80.8333,104.5 80.1667,104.5 79.5,104.5C 80.038,102.883 80.3713,101.216 80.5,99.5C 79.5,99.5 78.5,99.5 77.5,99.5C 79.0746,97.8863 79.7413,95.8863 79.5,93.5C 79.6287,91.7839 79.962,90.1172 80.5,88.5C 82.5,85.5 84.5,82.5 86.5,79.5C 88.8061,77.9645 91.1395,76.7978 93.5,76C 92.386,77.5699 91.0526,78.9032 89.5,80C 90.7159,81.594 92.0493,83.094 93.5,84.5C 92.9027,87.9713 92.236,91.3046 91.5,94.5 Z"/></g>
<g><path style="opacity:1" fill="#44647f" d="M 173.5,80.5 C 173.833,80.5 174.167,80.5 174.5,80.5C 174.174,89.0168 174.507,97.3501 175.5,105.5C 176.167,105.5 176.833,105.5 177.5,105.5C 177.5,106.167 177.5,106.833 177.5,107.5C 176.167,107.5 174.833,107.5 173.5,107.5C 173.5,99.1667 173.5,90.8333 173.5,82.5C 173.5,81.8333 173.5,81.1667 173.5,80.5 Z"/></g>
<g><path style="opacity:1" fill="#6699b8" d="M 182.5,75.5 C 182.833,75.5 183.167,75.5 183.5,75.5C 183.932,76.7095 184.599,77.7095 185.5,78.5C 185.414,79.4959 185.748,80.3292 186.5,81C 185.833,81.3333 185.167,81.6667 184.5,82C 185.646,82.6449 186.646,83.4783 187.5,84.5C 188.833,90.8333 188.833,97.1667 187.5,103.5C 186.583,104.127 185.583,104.461 184.5,104.5C 185.987,101.737 186.654,98.7372 186.5,95.5C 186.423,91.3677 185.756,87.3677 184.5,83.5C 182.61,83.7035 181.11,83.0368 180,81.5C 178.198,82.7893 177.031,84.4559 176.5,86.5C 175.51,92.6446 175.177,98.9779 175.5,105.5C 174.507,97.3501 174.174,89.0168 174.5,80.5C 175.5,80.5 176.5,80.5 177.5,80.5C 177.5,79.5 177.5,78.5 177.5,77.5C 179.322,77.1692 180.989,76.5025 182.5,75.5 Z"/></g>
<g><path style="opacity:1" fill="#3d3d3d" d="M 119.5,86.5 C 121.5,86.5 123.5,86.5 125.5,86.5C 125.853,88.6348 125.02,89.9681 123,90.5C 121.251,89.5902 120.084,88.2569 119.5,86.5 Z"/></g>
<g><path style="opacity:1" fill="#1a2639" d="M 173.5,82.5 C 173.5,90.8333 173.5,99.1667 173.5,107.5C 171.978,102.91 170.978,98.0764 170.5,93C 171.515,89.8557 171.515,86.6891 170.5,83.5C 171.391,82.8902 172.391,82.5569 173.5,82.5 Z"/></g>
<g><path style="opacity:1" fill="#61747f" d="M 72.5,93.5 C 71.1667,93.5 69.8333,93.5 68.5,93.5C 68.6495,94.552 68.4828,95.552 68,96.5C 67.5776,94.5743 66.4109,93.5743 64.5,93.5C 65.3007,91.9582 65.634,90.2915 65.5,88.5C 66.552,88.3505 67.552,88.5172 68.5,89C 69.9893,90.4685 71.3226,91.9685 72.5,93.5 Z"/></g>
<g><path style="opacity:1" fill="#4c464a" d="M 133.5,95.5 C 133.158,96.3382 132.492,96.6716 131.5,96.5C 131.5,95.1667 131.5,93.8333 131.5,92.5C 133.035,91.2121 134.701,91.2121 136.5,92.5C 135.007,93.1411 134.007,94.1411 133.5,95.5 Z"/></g>
<g><path style="opacity:1" fill="#5aa2d1" d="M 184.5,104.5 C 182.565,105.15 180.565,105.483 178.5,105.5C 178.768,103.901 178.434,102.568 177.5,101.5C 177.821,96.3054 177.487,91.3054 176.5,86.5C 177.031,84.4559 178.198,82.7893 180,81.5C 181.11,83.0368 182.61,83.7035 184.5,83.5C 185.756,87.3677 186.423,91.3677 186.5,95.5C 186.654,98.7372 185.987,101.737 184.5,104.5 Z"/></g>
<g><path style="opacity:1" fill="#53aae5" d="M 179.5,86.5 C 182.892,87.916 184.559,90.5827 184.5,94.5C 184.247,96.956 183.247,98.956 181.5,100.5C 180.833,100.167 180.167,99.8333 179.5,99.5C 178.23,95.1186 178.23,90.7853 179.5,86.5 Z"/></g>
<g><path style="opacity:1" fill="#382812" d="M 131.5,96.5 C 132.492,96.6716 133.158,96.3382 133.5,95.5C 134.537,96.9303 135.204,98.597 135.5,100.5C 134.833,100.5 134.167,100.5 133.5,100.5C 129.282,98.5839 124.615,97.5839 119.5,97.5C 119.5,97.1667 119.5,96.8333 119.5,96.5C 123.86,95.2816 127.86,95.2816 131.5,96.5 Z"/></g>
<g><path style="opacity:1" fill="#617586" d="M 64.5,95.5 C 64.8039,96.1499 65.1373,96.8165 65.5,97.5C 64.5178,100.096 63.8511,102.762 63.5,105.5C 60.5053,103.857 59.8386,101.523 61.5,98.5C 62.1001,97.0998 63.1001,96.0998 64.5,95.5 Z"/></g>
<g><path style="opacity:1" fill="#393d41" d="M 95.5,89.5 C 94.9301,94.2504 93.9301,98.9171 92.5,103.5C 92.8333,104.167 93.1667,104.833 93.5,105.5C 95.0983,104.515 96.765,104.349 98.5,105C 97.2625,105.232 96.2625,105.732 95.5,106.5C 94.1667,106.5 92.8333,106.5 91.5,106.5C 91.5,104.5 91.5,102.5 91.5,100.5C 92.856,97.4233 93.6894,94.0899 94,90.5C 94.3826,89.944 94.8826,89.6107 95.5,89.5 Z"/></g>
<g><path style="opacity:1" fill="#7c8992" d="M 91.5,94.5 C 91.5,96.5 91.5,98.5 91.5,100.5C 91.5,102.5 91.5,104.5 91.5,106.5C 92.8333,106.5 94.1667,106.5 95.5,106.5C 97.6988,108.098 100.032,109.432 102.5,110.5C 102.5,110.833 102.5,111.167 102.5,111.5C 101.662,111.842 101.328,112.508 101.5,113.5C 100.833,114.5 100.167,115.5 99.5,116.5C 98.36,113.975 97.6933,111.308 97.5,108.5C 93.1892,109.464 90.1892,107.964 88.5,104C 87.2506,103.26 86.2506,103.427 85.5,104.5C 84.8333,104.5 84.5,104.833 84.5,105.5C 83.609,104.89 82.609,104.557 81.5,104.5C 81.5,102.833 81.5,101.167 81.5,99.5C 84.5584,99.2882 87.0584,97.9548 89,95.5C 89.3333,96.1667 89.6667,96.8333 90,97.5C 90.0826,95.4936 90.5826,94.4936 91.5,94.5 Z"/></g>
<g><path style="opacity:1" fill="#3a77a5" d="M 176.5,86.5 C 177.487,91.3054 177.821,96.3054 177.5,101.5C 177.5,102.833 177.5,104.167 177.5,105.5C 176.833,105.5 176.167,105.5 175.5,105.5C 175.177,98.9779 175.51,92.6446 176.5,86.5 Z"/></g>
<g><path style="opacity:1" fill="#6c6048" d="M 119.5,96.5 C 119.5,96.8333 119.5,97.1667 119.5,97.5C 118.07,97.5792 116.736,97.2458 115.5,96.5C 113.83,99.1128 113.497,101.779 114.5,104.5C 114.167,104.5 113.833,104.5 113.5,104.5C 112.833,104.5 112.5,104.167 112.5,103.5C 108.264,101.027 108.597,99.6935 113.5,99.5C 113.5,98.1667 113.5,96.8333 113.5,95.5C 115.735,95.2053 117.735,95.5386 119.5,96.5 Z"/></g>
<g><path style="opacity:1" fill="#847656" d="M 133.5,100.5 C 134.167,100.5 134.833,100.5 135.5,100.5C 136.5,100.5 137.5,100.5 138.5,100.5C 138.663,102.857 138.497,105.19 138,107.5C 137.329,108.252 136.496,108.586 135.5,108.5C 135.717,105.579 135.051,102.913 133.5,100.5 Z"/></g>
<g><path style="opacity:1" fill="#1a272e" d="M 188.5,80.5 C 189.825,84.4451 190.492,88.7784 190.5,93.5C 190.167,97.8333 189.833,102.167 189.5,106.5C 188.272,109.071 186.272,110.405 183.5,110.5C 183.198,114.823 183.865,118.99 185.5,123C 185.472,124.07 185.139,124.903 184.5,125.5C 184.386,123.282 183.72,121.282 182.5,119.5C 182.5,116.167 182.5,112.833 182.5,109.5C 185.114,109.075 187.114,107.742 188.5,105.5C 189.801,97.108 189.801,88.7747 188.5,80.5 Z"/></g>
<g><path style="opacity:1" fill="#7a99a7" d="M 64.5,93.5 C 66.4109,93.5743 67.5776,94.5743 68,96.5C 68.4828,95.552 68.6495,94.552 68.5,93.5C 69.8333,93.5 71.1667,93.5 72.5,93.5C 73.8149,94.4756 75.1482,95.4756 76.5,96.5C 77.2876,95.2299 78.2876,94.2299 79.5,93.5C 79.7413,95.8863 79.0746,97.8863 77.5,99.5C 77.0469,103.027 75.5469,106.027 73,108.5C 72.0589,110.989 72.5589,112.989 74.5,114.5C 75.7899,113.942 76.6232,112.942 77,111.5C 77.2355,113.119 78.0689,114.119 79.5,114.5C 79.5,116.5 79.5,118.5 79.5,120.5C 80.8333,120.5 82.1667,120.5 83.5,120.5C 83.6287,118.784 83.962,117.117 84.5,115.5C 86.4651,113.014 87.7984,110.181 88.5,107C 88.2517,105.251 87.2517,104.418 85.5,104.5C 86.2506,103.427 87.2506,103.26 88.5,104C 90.1892,107.964 93.1892,109.464 97.5,108.5C 97.6933,111.308 98.36,113.975 99.5,116.5C 99.0198,119.443 98.0198,122.11 96.5,124.5C 95.2921,123.766 93.9587,123.433 92.5,123.5C 92.8432,125.483 92.1765,126.817 90.5,127.5C 88.1042,125.977 85.4375,124.977 82.5,124.5C 81.9522,122.468 80.6188,121.468 78.5,121.5C 77.3281,120.295 75.9948,120.295 74.5,121.5C 73.8313,119.369 73.1646,117.369 72.5,115.5C 70.3661,113.53 68.3661,111.363 66.5,109C 65.552,108.517 64.552,108.351 63.5,108.5C 63.5,107.5 63.5,106.5 63.5,105.5C 63.8511,102.762 64.5178,100.096 65.5,97.5C 65.1373,96.8165 64.8039,96.1499 64.5,95.5C 64.5,94.8333 64.5,94.1667 64.5,93.5 Z"/></g>
<g><path style="opacity:1" fill="#cde9ee" d="M 69.5,94.5 C 70.675,94.281 71.675,94.6143 72.5,95.5C 70.3528,98.9705 68.6862,102.637 67.5,106.5C 66.5,106.5 65.5,106.5 64.5,106.5C 65.3135,102.061 66.9801,98.0605 69.5,94.5 Z"/></g>
<g><path style="opacity:1" fill="#bda768" d="M 121.5,99.5 C 119.613,100.768 118.613,102.601 118.5,105C 119.86,107.27 120.527,109.77 120.5,112.5C 121.5,112.5 122.5,112.5 123.5,112.5C 123.5,112.833 123.5,113.167 123.5,113.5C 123.44,114.043 123.107,114.376 122.5,114.5C 120.55,113.628 118.55,112.961 116.5,112.5C 116.784,110.585 116.451,108.919 115.5,107.5C 116.541,104.458 116.541,101.458 115.5,98.5C 117.735,98.2053 119.735,98.5386 121.5,99.5 Z"/></g>
<g><path style="opacity:1" fill="#d6ba5a" d="M 121.5,99.5 C 126.495,99.0031 130.495,100.67 133.5,104.5C 131.791,109.301 128.458,111.968 123.5,112.5C 122.5,112.5 121.5,112.5 120.5,112.5C 120.527,109.77 119.86,107.27 118.5,105C 118.613,102.601 119.613,100.768 121.5,99.5 Z"/></g>
<g><path style="opacity:1" fill="#e5c23c" d="M 122.5,101.5 C 126.976,100.494 129.142,102.16 129,106.5C 124.805,111.042 121.971,110.375 120.5,104.5C 120.942,103.261 121.609,102.261 122.5,101.5 Z"/></g>
<g><path style="opacity:1" fill="#59859e" d="M 185.5,78.5 C 186.5,79.1667 187.5,79.8333 188.5,80.5C 189.801,88.7747 189.801,97.108 188.5,105.5C 187.114,107.742 185.114,109.075 182.5,109.5C 182.167,109.5 181.833,109.5 181.5,109.5C 180.005,109.011 178.671,108.345 177.5,107.5C 177.5,106.833 177.5,106.167 177.5,105.5C 177.5,104.167 177.5,102.833 177.5,101.5C 178.434,102.568 178.768,103.901 178.5,105.5C 180.565,105.483 182.565,105.15 184.5,104.5C 185.583,104.461 186.583,104.127 187.5,103.5C 188.833,97.1667 188.833,90.8333 187.5,84.5C 186.646,83.4783 185.646,82.6449 184.5,82C 185.167,81.6667 185.833,81.3333 186.5,81C 185.748,80.3292 185.414,79.4959 185.5,78.5 Z"/></g>
<g><path style="opacity:1" fill="#44422d" d="M 138.5,100.5 C 139.167,100.5 139.5,100.833 139.5,101.5C 139.232,103.099 139.566,104.432 140.5,105.5C 140.33,106.822 140.663,107.989 141.5,109C 141,109.5 140.5,110 140,110.5C 138.644,109.62 137.144,109.286 135.5,109.5C 135.5,109.167 135.5,108.833 135.5,108.5C 136.496,108.586 137.329,108.252 138,107.5C 138.497,105.19 138.663,102.857 138.5,100.5 Z"/></g>
<g><path style="opacity:1" fill="#252219" d="M 113.5,104.5 C 113.833,104.5 114.167,104.5 114.5,104.5C 114.263,105.791 114.596,106.791 115.5,107.5C 116.451,108.919 116.784,110.585 116.5,112.5C 116.833,113.167 117.167,113.833 117.5,114.5C 116.167,114.5 114.833,114.5 113.5,114.5C 113.5,114.167 113.5,113.833 113.5,113.5C 114.649,113.209 115.316,112.376 115.5,111C 114.382,108.941 113.715,106.774 113.5,104.5 Z"/></g>
<g><path style="opacity:1" fill="#c9e6ef" d="M 77.5,99.5 C 78.5,99.5 79.5,99.5 80.5,99.5C 80.3713,101.216 80.038,102.883 79.5,104.5C 77.8333,107.833 76.1667,111.167 74.5,114.5C 72.5589,112.989 72.0589,110.989 73,108.5C 75.5469,106.027 77.0469,103.027 77.5,99.5 Z"/></g>
<g><path style="opacity:1" fill="#171f28" d="M 170.5,83.5 C 171.515,86.6891 171.515,89.8557 170.5,93C 170.978,98.0764 171.978,102.91 173.5,107.5C 174.833,107.5 176.167,107.5 177.5,107.5C 178.671,108.345 180.005,109.011 181.5,109.5C 181.664,112.187 181.497,114.854 181,117.5C 178.281,118.444 175.448,118.777 172.5,118.5C 173.209,117.596 174.209,117.263 175.5,117.5C 174.345,112.851 172.345,108.518 169.5,104.5C 170.609,103.035 170.109,102.035 168,101.5C 167.727,99.8988 167.227,98.3988 166.5,97C 168.459,94.6842 168.459,92.6842 166.5,91C 167.763,89.2949 168.097,87.6282 167.5,86C 168.46,84.5806 169.293,83.0806 170,81.5C 170.464,82.0944 170.631,82.7611 170.5,83.5 Z"/></g>
<g><path style="opacity:1" fill="#7a9cae" d="M 79.5,104.5 C 80.1667,104.5 80.8333,104.5 81.5,104.5C 82.609,104.557 83.609,104.89 84.5,105.5C 83.5,108.167 82.5,110.833 81.5,113.5C 80.8333,113.833 80.1667,114.167 79.5,114.5C 78.0689,114.119 77.2355,113.119 77,111.5C 76.6232,112.942 75.7899,113.942 74.5,114.5C 76.1667,111.167 77.8333,107.833 79.5,104.5 Z"/></g>
<g><path style="opacity:1" fill="#c8e8ed" d="M 85.5,104.5 C 87.2517,104.418 88.2517,105.251 88.5,107C 87.7984,110.181 86.4651,113.014 84.5,115.5C 83.1497,116.483 82.1497,117.816 81.5,119.5C 80.4808,117.54 80.4808,115.54 81.5,113.5C 82.5,110.833 83.5,108.167 84.5,105.5C 84.5,104.833 84.8333,104.5 85.5,104.5 Z"/></g>
<g><path style="opacity:1" fill="#4b5354" d="M 102.5,111.5 C 102.5,111.167 102.5,110.833 102.5,110.5C 102.833,110.5 103.167,110.5 103.5,110.5C 107.091,110.945 110.424,111.945 113.5,113.5C 113.5,113.833 113.5,114.167 113.5,114.5C 113.167,114.5 112.833,114.5 112.5,114.5C 111.791,113.596 110.791,113.263 109.5,113.5C 107.409,112.135 105.076,111.468 102.5,111.5 Z"/></g>
<g><path style="opacity:1" fill="#a18955" d="M 119.5,97.5 C 124.615,97.5839 129.282,98.5839 133.5,100.5C 135.051,102.913 135.717,105.579 135.5,108.5C 135.5,108.833 135.5,109.167 135.5,109.5C 134.209,109.263 133.209,109.596 132.5,110.5C 132.5,111.167 132.167,111.5 131.5,111.5C 130.29,111.932 129.29,112.599 128.5,113.5C 126.833,113.5 125.167,113.5 123.5,113.5C 123.5,113.167 123.5,112.833 123.5,112.5C 128.458,111.968 131.791,109.301 133.5,104.5C 130.495,100.67 126.495,99.0031 121.5,99.5C 119.735,98.5386 117.735,98.2053 115.5,98.5C 116.541,101.458 116.541,104.458 115.5,107.5C 114.596,106.791 114.263,105.791 114.5,104.5C 113.497,101.779 113.83,99.1128 115.5,96.5C 116.736,97.2458 118.07,97.5792 119.5,97.5 Z"/></g>
<g><path style="opacity:1" fill="#959577" d="M 116.5,112.5 C 118.55,112.961 120.55,113.628 122.5,114.5C 123.107,114.376 123.44,114.043 123.5,113.5C 125.167,113.5 126.833,113.5 128.5,113.5C 127.1,114.1 126.1,115.1 125.5,116.5C 125.167,116.5 124.833,116.5 124.5,116.5C 122.167,115.833 119.833,115.167 117.5,114.5C 117.167,113.833 116.833,113.167 116.5,112.5 Z"/></g>
<g><path style="opacity:1" fill="#1c252d" d="M 63.5,108.5 C 64.552,108.351 65.552,108.517 66.5,109C 68.3661,111.363 70.3661,113.53 72.5,115.5C 72.5,118.5 72.5,121.5 72.5,124.5C 70.8356,123.051 70.0023,121.051 70,118.5C 69.586,118.957 69.086,119.291 68.5,119.5C 67.9347,117.49 66.9347,115.824 65.5,114.5C 64.5233,112.589 63.8567,110.589 63.5,108.5 Z"/></g>
<g><path style="opacity:1" fill="#a2b9bf" d="M 109.5,113.5 C 110.791,113.263 111.791,113.596 112.5,114.5C 112.918,115.222 113.584,115.722 114.5,116C 113.901,117.622 113.234,119.122 112.5,120.5C 112.5,119.167 112.5,117.833 112.5,116.5C 111.5,116.5 110.5,116.5 109.5,116.5C 109.5,115.5 109.5,114.5 109.5,113.5 Z"/></g>
<g><path style="opacity:1" fill="#1c1e20" d="M 152.5,102.5 C 152.611,103.117 152.944,103.617 153.5,104C 152.376,104.249 151.376,104.749 150.5,105.5C 151.629,107.529 151.129,107.863 149,106.5C 148.691,107.766 148.191,108.933 147.5,110C 149.126,109.805 150.793,109.805 152.5,110C 151.424,111.726 151.257,113.559 152,115.5C 152.388,114.572 153.055,113.905 154,113.5C 157.128,114.204 160.294,114.704 163.5,115C 164.252,115.671 164.586,116.504 164.5,117.5C 160.818,117.335 157.152,117.501 153.5,118C 152.944,118.383 152.611,118.883 152.5,119.5C 151.5,119.5 150.5,119.5 149.5,119.5C 148.167,118.167 146.833,118.167 145.5,119.5C 145.5,118.167 144.833,117.5 143.5,117.5C 141.649,112.316 137.983,109.983 132.5,110.5C 133.209,109.596 134.209,109.263 135.5,109.5C 137.144,109.286 138.644,109.62 140,110.5C 140.5,110 141,109.5 141.5,109C 140.663,107.989 140.33,106.822 140.5,105.5C 142.167,105.5 143.833,105.5 145.5,105.5C 147.213,103.15 149.547,102.15 152.5,102.5 Z"/></g>
<g><path style="opacity:1" fill="#353d3b" d="M 131.5,111.5 C 130.594,113.417 129.261,115.083 127.5,116.5C 132.792,117.495 138.125,117.828 143.5,117.5C 143.5,118.167 143.5,118.833 143.5,119.5C 137.925,118.548 132.259,118.214 126.5,118.5C 126.672,117.508 126.338,116.842 125.5,116.5C 126.1,115.1 127.1,114.1 128.5,113.5C 129.29,112.599 130.29,111.932 131.5,111.5 Z"/></g>
<g><path style="opacity:1" fill="#8da1a6" d="M 126.5,118.5 C 132.259,118.214 137.925,118.548 143.5,119.5C 144.167,119.5 144.833,119.5 145.5,119.5C 146.833,118.167 148.167,118.167 149.5,119.5C 149.5,119.833 149.5,120.167 149.5,120.5C 149.167,120.5 148.833,120.5 148.5,120.5C 146.585,120.216 144.919,120.549 143.5,121.5C 142.391,121.557 141.391,121.89 140.5,122.5C 140.53,121.503 140.03,120.836 139,120.5C 137.697,120.978 136.531,121.645 135.5,122.5C 135.53,121.503 135.03,120.836 134,120.5C 132.826,121.544 131.659,122.544 130.5,123.5C 130.5,122.5 130.5,121.5 130.5,120.5C 129.5,120.5 128.5,120.5 127.5,120.5C 127.768,122.099 127.434,123.432 126.5,124.5C 126.5,122.5 126.5,120.5 126.5,118.5 Z"/></g>
<g><path style="opacity:1" fill="#18324b" d="M 164.5,117.5 C 166.781,117.077 168.448,117.744 169.5,119.5C 169.167,119.5 168.833,119.5 168.5,119.5C 163.167,119.5 157.833,119.5 152.5,119.5C 152.611,118.883 152.944,118.383 153.5,118C 157.152,117.501 160.818,117.335 164.5,117.5 Z"/></g>
<g><path style="opacity:1" fill="#3c4d5f" d="M 181.5,109.5 C 181.833,109.5 182.167,109.5 182.5,109.5C 182.5,112.833 182.5,116.167 182.5,119.5C 179.167,119.5 175.833,119.5 172.5,119.5C 172.5,119.167 172.5,118.833 172.5,118.5C 175.448,118.777 178.281,118.444 181,117.5C 181.497,114.854 181.664,112.187 181.5,109.5 Z"/></g>
<g><path style="opacity:1" fill="#667177" d="M 72.5,115.5 C 73.1646,117.369 73.8313,119.369 74.5,121.5C 75.9948,120.295 77.3281,120.295 78.5,121.5C 76.5,122.5 74.5,123.5 72.5,124.5C 72.5,121.5 72.5,118.5 72.5,115.5 Z"/></g>
<g><path style="opacity:1" fill="#aac2ce" d="M 81.5,113.5 C 80.4808,115.54 80.4808,117.54 81.5,119.5C 82.1497,117.816 83.1497,116.483 84.5,115.5C 83.962,117.117 83.6287,118.784 83.5,120.5C 82.1667,120.5 80.8333,120.5 79.5,120.5C 79.5,118.5 79.5,116.5 79.5,114.5C 80.1667,114.167 80.8333,113.833 81.5,113.5 Z"/></g>
<g><path style="opacity:1" fill="#436c8b" d="M 149.5,119.5 C 150.5,119.5 151.5,119.5 152.5,119.5C 157.833,119.5 163.167,119.5 168.5,119.5C 168.5,119.833 168.5,120.167 168.5,120.5C 164.5,120.5 160.5,120.5 156.5,120.5C 153.959,121.103 151.626,121.103 149.5,120.5C 149.5,120.167 149.5,119.833 149.5,119.5 Z"/></g>
<g><path style="opacity:1" fill="#1b1b1b" d="M 61.5,98.5 C 59.8386,101.523 60.5053,103.857 63.5,105.5C 63.5,106.5 63.5,107.5 63.5,108.5C 63.8567,110.589 64.5233,112.589 65.5,114.5C 66.9347,115.824 67.9347,117.49 68.5,119.5C 69.086,119.291 69.586,118.957 70,118.5C 70.0023,121.051 70.8356,123.051 72.5,124.5C 74.5,123.5 76.5,122.5 78.5,121.5C 80.6188,121.468 81.9522,122.468 82.5,124.5C 81.2436,124.096 80.0769,123.429 79,122.5C 76.8636,124.459 74.3636,125.793 71.5,126.5C 66.7046,132.445 62.7046,138.779 59.5,145.5C 57.8762,145.36 56.7096,146.027 56,147.5C 55.5814,146.328 54.9147,145.328 54,144.5C 51.8878,148.127 50.2211,148.127 49,144.5C 48.3109,145.357 47.4776,146.023 46.5,146.5C 42.3536,145.126 38.187,143.793 34,142.5C 34.1781,144.44 33.1781,146.107 31,147.5C 29.1886,146.576 29.3553,145.743 31.5,145C 25.654,143.486 20.8206,140.32 17,135.5C 15.6873,137.392 14.1873,137.726 12.5,136.5C 9.17876,129.933 10.3454,128.933 16,133.5C 17.563,132.898 17.3963,132.065 15.5,131C 23.207,131.268 30.5403,129.934 37.5,127C 38.2524,126.329 38.5858,125.496 38.5,124.5C 41.8585,121.454 44.5251,117.788 46.5,113.5C 51.829,108.701 56.829,103.701 61.5,98.5 Z"/></g>
<g><path style="opacity:1" fill="#c8e6ef" d="M 109.5,116.5 C 110.5,116.5 111.5,116.5 112.5,116.5C 112.5,117.833 112.5,119.167 112.5,120.5C 110.967,124.028 109.967,127.695 109.5,131.5C 108.5,131.5 107.5,131.5 106.5,131.5C 108.084,126.598 109.084,121.598 109.5,116.5 Z"/></g>
<g><path style="opacity:1" fill="#679ec2" d="M 156.5,120.5 C 160.5,120.5 164.5,120.5 168.5,120.5C 169.167,120.5 169.5,120.833 169.5,121.5C 168.596,122.209 168.263,123.209 168.5,124.5C 163.849,124.321 159.349,124.321 155,124.5C 154.516,122.807 155.016,121.473 156.5,120.5 Z"/></g>
<g><path style="opacity:1" fill="#cbe8ed" d="M 93.5,109.5 C 94.5,109.5 95.5,109.5 96.5,109.5C 94.619,114.807 92.9524,120.141 91.5,125.5C 90.5,125.5 89.5,125.5 88.5,125.5C 89.0233,119.792 90.69,114.459 93.5,109.5 Z"/></g>
<g><path style="opacity:1" fill="#687c8a" d="M 168.5,120.5 C 168.5,120.167 168.5,119.833 168.5,119.5C 168.833,119.5 169.167,119.5 169.5,119.5C 170.5,119.5 171.5,119.5 172.5,119.5C 175.833,119.5 179.167,119.5 182.5,119.5C 183.72,121.282 184.386,123.282 184.5,125.5C 184.167,125.5 183.833,125.5 183.5,125.5C 182.833,125.5 182.5,125.833 182.5,126.5C 181.698,125.048 181.198,123.382 181,121.5C 179.644,120.62 178.144,120.286 176.5,120.5C 175.167,120.5 173.833,120.5 172.5,120.5C 173.01,123.388 172.344,125.721 170.5,127.5C 170.5,127.167 170.5,126.833 170.5,126.5C 170.784,124.585 170.451,122.919 169.5,121.5C 169.5,120.833 169.167,120.5 168.5,120.5 Z"/></g>
<g><path style="opacity:1" fill="#7b9eaf" d="M 102.5,111.5 C 105.076,111.468 107.409,112.135 109.5,113.5C 109.5,114.5 109.5,115.5 109.5,116.5C 109.084,121.598 108.084,126.598 106.5,131.5C 107.5,131.5 108.5,131.5 109.5,131.5C 108.432,132.434 107.099,132.768 105.5,132.5C 105.808,130.076 105.474,127.743 104.5,125.5C 103.749,126.376 103.249,127.376 103,128.5C 102.23,127.402 101.397,127.402 100.5,128.5C 101.699,123.869 103.032,119.202 104.5,114.5C 104.124,112.197 103.124,111.863 101.5,113.5C 101.328,112.508 101.662,111.842 102.5,111.5 Z"/></g>
<g><path style="opacity:1" fill="#c9e2e9" d="M 100.5,128.5 C 98.9582,129.301 97.2915,129.634 95.5,129.5C 95.366,127.708 95.6993,126.042 96.5,124.5C 98.0198,122.11 99.0198,119.443 99.5,116.5C 100.167,115.5 100.833,114.5 101.5,113.5C 103.124,111.863 104.124,112.197 104.5,114.5C 103.032,119.202 101.699,123.869 100.5,128.5 Z"/></g>
<g><path style="opacity:1" fill="#adcad3" d="M 117.5,114.5 C 119.833,115.167 122.167,115.833 124.5,116.5C 123.828,117.267 122.995,117.934 122,118.5C 121.665,122.736 120.832,126.736 119.5,130.5C 119.782,126.704 119.782,123.037 119.5,119.5C 118.92,122.447 117.92,125.114 116.5,127.5C 116.782,124.09 117.449,120.757 118.5,117.5C 116.565,116.787 116.232,115.787 117.5,114.5 Z"/></g>
<g><path style="opacity:1" fill="#7aa1b3" d="M 148.5,120.5 C 148.833,120.5 149.167,120.5 149.5,120.5C 151.626,121.103 153.959,121.103 156.5,120.5C 155.016,121.473 154.516,122.807 155,124.5C 159.349,124.321 163.849,124.321 168.5,124.5C 168.263,123.209 168.596,122.209 169.5,121.5C 170.451,122.919 170.784,124.585 170.5,126.5C 163.5,126.5 156.5,126.5 149.5,126.5C 149.253,128.858 149.919,130.858 151.5,132.5C 150.391,132.443 149.391,132.11 148.5,131.5C 148.5,127.833 148.5,124.167 148.5,120.5 Z"/></g>
<g><path style="opacity:1" fill="#739aaa" d="M 176.5,120.5 C 178.144,120.286 179.644,120.62 181,121.5C 181.198,123.382 181.698,125.048 182.5,126.5C 182.5,129.5 182.5,132.5 182.5,135.5C 180.5,135.5 178.5,135.5 176.5,135.5C 176.5,130.5 176.5,125.5 176.5,120.5 Z"/></g>
<g><path style="opacity:1" fill="#1c2830" d="M 183.5,125.5 C 182.948,133.804 184.614,141.471 188.5,148.5C 187.518,147.859 186.518,147.193 185.5,146.5C 184.583,147.127 183.583,147.461 182.5,147.5C 179.26,145.608 176.26,143.274 173.5,140.5C 173.5,139.5 173.5,138.5 173.5,137.5C 174.5,137.5 175.5,137.5 176.5,137.5C 178.262,137.357 179.929,137.691 181.5,138.5C 182.386,137.675 182.719,136.675 182.5,135.5C 182.5,132.5 182.5,129.5 182.5,126.5C 182.5,125.833 182.833,125.5 183.5,125.5 Z"/></g>
<g><path style="opacity:1" fill="#0a0a0a" d="M 38.5,124.5 C 38.5858,125.496 38.2524,126.329 37.5,127C 30.5403,129.934 23.207,131.268 15.5,131C 17.3963,132.065 17.563,132.898 16,133.5C 10.3454,128.933 9.17876,129.933 12.5,136.5C 8.83526,134.675 7.83526,131.842 9.5,128C 13.2976,128.922 17.2976,129.422 21.5,129.5C 27.5426,128.876 33.2092,127.21 38.5,124.5 Z"/></g>
<g><path style="opacity:1" fill="#6f8d97" d="M 96.5,124.5 C 95.6993,126.042 95.366,127.708 95.5,129.5C 97.2915,129.634 98.9582,129.301 100.5,128.5C 101.397,127.402 102.23,127.402 103,128.5C 103.249,127.376 103.749,126.376 104.5,125.5C 105.474,127.743 105.808,130.076 105.5,132.5C 107.099,132.768 108.432,132.434 109.5,131.5C 113.411,129.732 115.078,131.065 114.5,135.5C 112.833,135.5 111.167,135.5 109.5,135.5C 106.493,132.835 102.827,131.502 98.5,131.5C 95.6145,130.617 92.9479,129.284 90.5,127.5C 92.1765,126.817 92.8432,125.483 92.5,123.5C 93.9587,123.433 95.2921,123.766 96.5,124.5 Z"/></g>
<g><path style="opacity:1" fill="#1e2222" d="M 82.5,124.5 C 85.4375,124.977 88.1042,125.977 90.5,127.5C 92.9479,129.284 95.6145,130.617 98.5,131.5C 92.6495,130.38 87.3162,128.047 82.5,124.5 Z"/></g>
<g><path style="opacity:1" fill="#c8e7ee" d="M 135.5,128.5 C 135.5,127.833 135.5,127.167 135.5,126.5C 136.232,125.192 137.066,123.858 138,122.5C 138.315,127.838 138.148,133.172 137.5,138.5C 136.5,138.5 135.5,138.5 134.5,138.5C 134.833,135.167 135.167,131.833 135.5,128.5 Z"/></g>
<g><path style="opacity:1" fill="#abcede" d="M 170.5,126.5 C 170.5,126.833 170.5,127.167 170.5,127.5C 163.8,127.17 157.134,127.503 150.5,128.5C 150.709,129.086 151.043,129.586 151.5,130C 157.835,130.556 164.168,131.056 170.5,131.5C 171.492,131.328 172.158,131.662 172.5,132.5C 171.5,132.5 170.5,132.5 169.5,132.5C 163.5,132.5 157.5,132.5 151.5,132.5C 149.919,130.858 149.253,128.858 149.5,126.5C 156.5,126.5 163.5,126.5 170.5,126.5 Z"/></g>
<g><path style="opacity:1" fill="#dcf1f7" d="M 170.5,127.5 C 170.5,128.833 170.5,130.167 170.5,131.5C 164.168,131.056 157.835,130.556 151.5,130C 151.043,129.586 150.709,129.086 150.5,128.5C 157.134,127.503 163.8,127.17 170.5,127.5 Z"/></g>
<g><path style="opacity:1" fill="#c5dde7" d="M 176.5,120.5 C 176.5,125.5 176.5,130.5 176.5,135.5C 176.5,135.833 176.5,136.167 176.5,136.5C 175.167,136.5 173.833,136.5 172.5,136.5C 172.5,135.167 172.5,133.833 172.5,132.5C 172.158,131.662 171.492,131.328 170.5,131.5C 170.5,130.167 170.5,128.833 170.5,127.5C 172.344,125.721 173.01,123.388 172.5,120.5C 173.833,120.5 175.167,120.5 176.5,120.5 Z"/></g>
<g><path style="opacity:1" fill="#364246" d="M 98.5,131.5 C 102.827,131.502 106.493,132.835 109.5,135.5C 109.167,135.5 108.833,135.5 108.5,135.5C 105.167,134.167 101.833,132.833 98.5,131.5 Z"/></g>
<g><path style="opacity:1" fill="#7a9bac" d="M 112.5,114.5 C 112.833,114.5 113.167,114.5 113.5,114.5C 114.833,114.5 116.167,114.5 117.5,114.5C 116.232,115.787 116.565,116.787 118.5,117.5C 117.449,120.757 116.782,124.09 116.5,127.5C 115.551,130.208 115.551,132.874 116.5,135.5C 118.051,134.2 119.051,132.533 119.5,130.5C 120.832,126.736 121.665,122.736 122,118.5C 122.995,117.934 123.828,117.267 124.5,116.5C 124.833,116.5 125.167,116.5 125.5,116.5C 126.338,116.842 126.672,117.508 126.5,118.5C 126.5,120.5 126.5,122.5 126.5,124.5C 125.741,128.477 125.075,132.477 124.5,136.5C 125.833,136.5 127.167,136.5 128.5,136.5C 128.687,132.087 129.354,127.754 130.5,123.5C 131.659,122.544 132.826,121.544 134,120.5C 135.03,120.836 135.53,121.503 135.5,122.5C 135.5,123.833 135.5,125.167 135.5,126.5C 135.5,127.167 135.5,127.833 135.5,128.5C 134.883,128.611 134.383,128.944 134,129.5C 133.501,133.152 133.335,136.818 133.5,140.5C 129.256,139.357 124.923,138.69 120.5,138.5C 121.141,137.518 121.807,136.518 122.5,135.5C 122,135.167 121.5,134.833 121,134.5C 119.121,136.013 116.954,136.679 114.5,136.5C 114.5,136.167 114.5,135.833 114.5,135.5C 115.078,131.065 113.411,129.732 109.5,131.5C 109.967,127.695 110.967,124.028 112.5,120.5C 113.234,119.122 113.901,117.622 114.5,116C 113.584,115.722 112.918,115.222 112.5,114.5 Z"/></g>
<g><path style="opacity:1" fill="#cbeaf1" d="M 130.5,123.5 C 129.354,127.754 128.687,132.087 128.5,136.5C 127.167,136.5 125.833,136.5 124.5,136.5C 125.075,132.477 125.741,128.477 126.5,124.5C 127.434,123.432 127.768,122.099 127.5,120.5C 128.5,120.5 129.5,120.5 130.5,120.5C 130.5,121.5 130.5,122.5 130.5,123.5 Z"/></g>
<g><path style="opacity:1" fill="#cfecf2" d="M 119.5,130.5 C 119.051,132.533 118.051,134.2 116.5,135.5C 115.551,132.874 115.551,130.208 116.5,127.5C 117.92,125.114 118.92,122.447 119.5,119.5C 119.782,123.037 119.782,126.704 119.5,130.5 Z"/></g>
<g><path style="opacity:1" fill="#6f95a6" d="M 143.5,121.5 C 144.434,122.568 144.768,123.901 144.5,125.5C 144.5,125.833 144.5,126.167 144.5,126.5C 143.383,130.295 142.717,134.295 142.5,138.5C 141.167,138.5 139.833,138.5 138.5,138.5C 139.058,133.115 139.725,127.782 140.5,122.5C 141.391,121.89 142.391,121.557 143.5,121.5 Z"/></g>
<g><path style="opacity:1" fill="#97bbcb" d="M 143.5,121.5 C 144.919,120.549 146.585,120.216 148.5,120.5C 148.5,124.167 148.5,127.833 148.5,131.5C 148.5,134.167 148.5,136.833 148.5,139.5C 151.455,138.841 154.455,138.508 157.5,138.5C 158.167,138.5 158.833,138.5 159.5,138.5C 159.5,138.833 159.5,139.167 159.5,139.5C 159.5,140.5 159.5,141.5 159.5,142.5C 155.466,142.495 151.466,142.162 147.5,141.5C 147.5,141.167 147.5,140.833 147.5,140.5C 147.666,134.491 147.499,128.491 147,122.5C 146.148,123.571 145.315,124.571 144.5,125.5C 144.768,123.901 144.434,122.568 143.5,121.5 Z"/></g>
<g><path style="opacity:1" fill="#c9e9f0" d="M 147.5,140.5 C 146.167,140.5 144.833,140.5 143.5,140.5C 143.998,135.848 144.331,131.181 144.5,126.5C 144.5,126.167 144.5,125.833 144.5,125.5C 145.315,124.571 146.148,123.571 147,122.5C 147.499,128.491 147.666,134.491 147.5,140.5 Z"/></g>
<g><path style="opacity:1" fill="#6c7f88" d="M 120.5,138.5 C 120.167,138.5 119.833,138.5 119.5,138.5C 117.833,137.833 116.167,137.167 114.5,136.5C 116.954,136.679 119.121,136.013 121,134.5C 121.5,134.833 122,135.167 122.5,135.5C 121.807,136.518 121.141,137.518 120.5,138.5 Z"/></g>
<g><path style="opacity:1" fill="#111313" d="M 108.5,135.5 C 108.833,135.5 109.167,135.5 109.5,135.5C 111.167,135.5 112.833,135.5 114.5,135.5C 114.5,135.833 114.5,136.167 114.5,136.5C 116.167,137.167 117.833,137.833 119.5,138.5C 118.127,138.343 116.793,138.51 115.5,139C 116.416,139.278 117.082,139.778 117.5,140.5C 116.5,140.5 115.5,140.5 114.5,140.5C 114.5,140.167 114.5,139.833 114.5,139.5C 114.5,138.833 114.167,138.5 113.5,138.5C 112.198,136.972 110.531,135.972 108.5,135.5 Z"/></g>
<g><path style="opacity:1" fill="#93b4c2" d="M 140.5,122.5 C 139.725,127.782 139.058,133.115 138.5,138.5C 139.833,138.5 141.167,138.5 142.5,138.5C 142.717,134.295 143.383,130.295 144.5,126.5C 144.331,131.181 143.998,135.848 143.5,140.5C 140.167,140.5 136.833,140.5 133.5,140.5C 133.335,136.818 133.501,133.152 134,129.5C 134.383,128.944 134.883,128.611 135.5,128.5C 135.167,131.833 134.833,135.167 134.5,138.5C 135.5,138.5 136.5,138.5 137.5,138.5C 138.148,133.172 138.315,127.838 138,122.5C 137.066,123.858 136.232,125.192 135.5,126.5C 135.5,125.167 135.5,123.833 135.5,122.5C 136.531,121.645 137.697,120.978 139,120.5C 140.03,120.836 140.53,121.503 140.5,122.5 Z"/></g>
<g><path style="opacity:1" fill="#3c5461" d="M 176.5,135.5 C 178.5,135.5 180.5,135.5 182.5,135.5C 182.719,136.675 182.386,137.675 181.5,138.5C 179.929,137.691 178.262,137.357 176.5,137.5C 176.5,137.167 176.5,136.833 176.5,136.5C 176.5,136.167 176.5,135.833 176.5,135.5 Z"/></g>
<g><path style="opacity:1" fill="#363c38" d="M 113.5,138.5 C 114.167,138.5 114.5,138.833 114.5,139.5C 109.821,139.334 105.155,139.501 100.5,140C 99.9558,140.717 99.2891,141.217 98.5,141.5C 98.4142,140.504 98.7476,139.671 99.5,139C 104.155,138.501 108.821,138.334 113.5,138.5 Z"/></g>
<g><path style="opacity:1" fill="#608eaf" d="M 148.5,131.5 C 149.391,132.11 150.391,132.443 151.5,132.5C 157.5,132.5 163.5,132.5 169.5,132.5C 169.756,134.792 169.423,136.959 168.5,139C 165.518,139.498 162.518,139.665 159.5,139.5C 159.5,139.167 159.5,138.833 159.5,138.5C 162.312,138.688 165.312,138.355 168.5,137.5C 168.5,136.5 168.5,135.5 168.5,134.5C 163.84,133.833 159.174,133.667 154.5,134C 153.833,134.333 153.167,134.667 152.5,135C 154.233,136.189 155.9,137.356 157.5,138.5C 154.455,138.508 151.455,138.841 148.5,139.5C 148.5,136.833 148.5,134.167 148.5,131.5 Z"/></g>
<g><path style="opacity:1" fill="#5ca0d0" d="M 159.5,138.5 C 158.833,138.5 158.167,138.5 157.5,138.5C 155.9,137.356 154.233,136.189 152.5,135C 153.167,134.667 153.833,134.333 154.5,134C 159.174,133.667 163.84,133.833 168.5,134.5C 168.5,135.5 168.5,136.5 168.5,137.5C 165.312,138.355 162.312,138.688 159.5,138.5 Z"/></g>
<g><path style="opacity:1" fill="#404641" d="M 114.5,140.5 C 115.5,140.5 116.5,140.5 117.5,140.5C 119.19,140.856 120.19,141.856 120.5,143.5C 118.426,142.486 116.426,141.486 114.5,140.5 Z"/></g>
<g><path style="opacity:1" fill="#3b444a" d="M 119.5,138.5 C 119.833,138.5 120.167,138.5 120.5,138.5C 124.923,138.69 129.256,139.357 133.5,140.5C 136.833,140.5 140.167,140.5 143.5,140.5C 144.833,140.5 146.167,140.5 147.5,140.5C 147.5,140.833 147.5,141.167 147.5,141.5C 137.868,141.938 128.534,140.938 119.5,138.5 Z"/></g>
<g><path style="opacity:1" fill="#191c1b" d="M 98.5,141.5 C 97.791,142.404 96.791,142.737 95.5,142.5C 95.7373,143.791 95.404,144.791 94.5,145.5C 94.5,144.167 94.5,142.833 94.5,141.5C 95.8333,141.5 97.1667,141.5 98.5,141.5 Z"/></g>
<g><path style="opacity:1" fill="#96a399" d="M 114.5,139.5 C 114.5,139.833 114.5,140.167 114.5,140.5C 116.426,141.486 118.426,142.486 120.5,143.5C 121.11,144.391 121.443,145.391 121.5,146.5C 121.5,147.167 121.167,147.5 120.5,147.5C 118.47,144.818 115.803,143.151 112.5,142.5C 111.848,141.275 110.681,140.608 109,140.5C 105.372,141.228 101.872,142.394 98.5,144C 97.7476,144.671 97.4142,145.504 97.5,146.5C 96.3412,147.74 95.3412,149.074 94.5,150.5C 93.8333,150.5 93.1667,150.5 92.5,150.5C 92.5,150.167 92.5,149.833 92.5,149.5C 93.3446,148.329 94.0113,146.995 94.5,145.5C 95.404,144.791 95.7373,143.791 95.5,142.5C 96.791,142.737 97.791,142.404 98.5,141.5C 99.2891,141.217 99.9558,140.717 100.5,140C 105.155,139.501 109.821,139.334 114.5,139.5 Z"/></g>
<g><path style="opacity:1" fill="#cad7cd" d="M 112.5,142.5 C 106.973,142.131 101.973,143.464 97.5,146.5C 97.4142,145.504 97.7476,144.671 98.5,144C 101.872,142.394 105.372,141.228 109,140.5C 110.681,140.608 111.848,141.275 112.5,142.5 Z"/></g>
<g><path style="opacity:1" fill="#171717" d="M 59.5,145.5 C 54.8229,151.675 48.4895,155.009 40.5,155.5C 36.4999,154.089 32.3332,153.089 28,152.5C 25.5956,150.589 23.429,148.589 21.5,146.5C 16.7468,144.747 13.7468,141.413 12.5,136.5C 14.1873,137.726 15.6873,137.392 17,135.5C 20.8206,140.32 25.654,143.486 31.5,145C 29.3553,145.743 29.1886,146.576 31,147.5C 33.1781,146.107 34.1781,144.44 34,142.5C 38.187,143.793 42.3536,145.126 46.5,146.5C 47.4776,146.023 48.3109,145.357 49,144.5C 50.2211,148.127 51.8878,148.127 54,144.5C 54.9147,145.328 55.5814,146.328 56,147.5C 56.7096,146.027 57.8762,145.36 59.5,145.5 Z"/></g>
<g><path style="opacity:1" fill="#c3dfec" d="M 163.5,146.5 C 161.481,145.462 161.147,144.128 162.5,142.5C 166.159,141.317 169.825,141.317 173.5,142.5C 170.666,144.912 167.333,146.245 163.5,146.5 Z"/></g>
<g><path style="opacity:1" fill="#292929" d="M 21.5,146.5 C 20.3163,144.238 18.6496,142.405 16.5,141C 16.8333,140.5 17.1667,140 17.5,139.5C 21.3504,142.261 25.0171,145.261 28.5,148.5C 28.1667,148.833 27.8333,149.167 27.5,149.5C 25.6802,148.117 23.6802,147.117 21.5,146.5 Z"/></g>
<g><path style="opacity:1" fill="#1c1e1d" d="M 120.5,143.5 C 123.143,144.623 124.81,146.623 125.5,149.5C 124.1,148.9 123.1,147.9 122.5,146.5C 122.167,146.5 121.833,146.5 121.5,146.5C 121.443,145.391 121.11,144.391 120.5,143.5 Z"/></g>
<g><path style="opacity:1" fill="#191919" d="M 94.5,145.5 C 94.0113,146.995 93.3446,148.329 92.5,149.5C 92.1667,149.5 91.8333,149.5 91.5,149.5C 91.7986,147.545 92.7986,146.211 94.5,145.5 Z"/></g>
<g><path style="opacity:1" fill="#e8f7ec" d="M 112.5,142.5 C 112.918,143.222 113.584,143.722 114.5,144C 114.167,144.333 113.833,144.667 113.5,145C 109.144,144.781 105.644,146.281 103,149.5C 100.385,152.973 98.5515,156.473 97.5,160C 101.732,161.603 101.398,163.436 96.5,165.5C 95.8333,165.5 95.5,165.167 95.5,164.5C 94.7705,159.87 94.4372,155.203 94.5,150.5C 95.3412,149.074 96.3412,147.74 97.5,146.5C 101.973,143.464 106.973,142.131 112.5,142.5 Z"/></g>
<g><path style="opacity:1" fill="#bee1eb" d="M 161.5,147.5 C 163.113,148.838 163.613,150.505 163,152.5C 160.959,151.577 158.792,151.244 156.5,151.5C 154.824,150.817 154.157,149.483 154.5,147.5C 156.833,147.5 159.167,147.5 161.5,147.5 Z"/></g>
<g><path style="opacity:1" fill="#607066" d="M 122.5,146.5 C 123.1,147.9 124.1,148.9 125.5,149.5C 125.818,154.032 125.485,158.366 124.5,162.5C 123.833,163.5 123.167,164.5 122.5,165.5C 122.365,163.446 123.032,161.779 124.5,160.5C 124.604,155.694 123.937,151.028 122.5,146.5 Z"/></g>
<g><path style="opacity:1" fill="#7b9baa" d="M 173.5,140.5 C 176.26,143.274 179.26,145.608 182.5,147.5C 178.446,148.353 174.446,149.519 170.5,151C 169.62,152.356 169.286,153.856 169.5,155.5C 169.167,155.5 168.833,155.5 168.5,155.5C 167.345,152.81 166.345,152.477 165.5,154.5C 166.346,158.118 166.68,161.785 166.5,165.5C 166.167,165.5 165.833,165.5 165.5,165.5C 163.5,165.5 161.5,165.5 159.5,165.5C 157.393,164.532 155.059,164.198 152.5,164.5C 152.904,163.244 153.571,162.077 154.5,161C 153.704,159.908 153.037,158.741 152.5,157.5C 152.747,156.287 153.414,155.62 154.5,155.5C 155.398,154.842 156.398,154.176 157.5,153.5C 157.137,152.817 156.804,152.15 156.5,151.5C 158.792,151.244 160.959,151.577 163,152.5C 163.613,150.505 163.113,148.838 161.5,147.5C 162.492,147.672 163.158,147.338 163.5,146.5C 167.333,146.245 170.666,144.912 173.5,142.5C 169.825,141.317 166.159,141.317 162.5,142.5C 165.684,140.586 169.351,139.92 173.5,140.5 Z"/></g>
<g><path style="opacity:1" fill="#c7e9ef" d="M 182.5,147.5 C 182.5,148.167 182.833,148.5 183.5,148.5C 183.586,149.496 183.252,150.329 182.5,151C 178.129,152.249 174.129,154.083 170.5,156.5C 169.833,156.5 169.5,156.167 169.5,155.5C 169.286,153.856 169.62,152.356 170.5,151C 174.446,149.519 178.446,148.353 182.5,147.5 Z"/></g>
<g><path style="opacity:1" fill="#779db0" d="M 183.5,148.5 C 184.404,149.209 184.737,150.209 184.5,151.5C 185.5,151.5 186.5,151.5 187.5,151.5C 187.5,152.5 187.5,153.5 187.5,154.5C 185.94,154.519 184.44,154.852 183,155.5C 181.032,157.653 178.699,159.32 176,160.5C 174.535,158.534 172.702,157.201 170.5,156.5C 174.129,154.083 178.129,152.249 182.5,151C 183.252,150.329 183.586,149.496 183.5,148.5 Z"/></g>
<g><path style="opacity:1" fill="#94a09a" d="M 92.5,151.5 C 93.2937,155.358 93.9603,159.358 94.5,163.5C 92.5772,159.971 91.9106,155.971 92.5,151.5 Z"/></g>
<g><path style="opacity:1" fill="#d3ecd9" d="M 112.5,142.5 C 115.803,143.151 118.47,144.818 120.5,147.5C 121.241,150.297 121.907,153.13 122.5,156C 122.472,157.07 122.139,157.903 121.5,158.5C 119.172,159.736 118.006,161.736 118,164.5C 116.249,163.191 114.749,163.525 113.5,165.5C 112.914,165.291 112.414,164.957 112,164.5C 108.544,166.168 105.044,167.501 101.5,168.5C 98.715,169.084 97.0483,168.084 96.5,165.5C 101.398,163.436 101.732,161.603 97.5,160C 98.5515,156.473 100.385,152.973 103,149.5C 105.644,146.281 109.144,144.781 113.5,145C 113.833,144.667 114.167,144.333 114.5,144C 113.584,143.722 112.918,143.222 112.5,142.5 Z"/></g>
<g><path style="opacity:1" fill="#b3ccbb" d="M 121.5,146.5 C 121.833,146.5 122.167,146.5 122.5,146.5C 123.937,151.028 124.604,155.694 124.5,160.5C 123.5,160.5 122.5,160.5 121.5,160.5C 121.5,159.833 121.5,159.167 121.5,158.5C 122.139,157.903 122.472,157.07 122.5,156C 121.907,153.13 121.241,150.297 120.5,147.5C 121.167,147.5 121.5,147.167 121.5,146.5 Z"/></g>
<g><path style="opacity:1" fill="#597884" d="M 188.5,148.5 C 189.209,149.404 190.209,149.737 191.5,149.5C 191.532,152.076 190.865,154.409 189.5,156.5C 185.227,156.473 181.893,158.139 179.5,161.5C 174.074,162.903 170.407,160.903 168.5,155.5C 168.833,155.5 169.167,155.5 169.5,155.5C 169.5,156.167 169.833,156.5 170.5,156.5C 172.702,157.201 174.535,158.534 176,160.5C 178.699,159.32 181.032,157.653 183,155.5C 184.44,154.852 185.94,154.519 187.5,154.5C 187.5,153.5 187.5,152.5 187.5,151.5C 186.5,151.5 185.5,151.5 184.5,151.5C 184.737,150.209 184.404,149.209 183.5,148.5C 182.833,148.5 182.5,148.167 182.5,147.5C 183.583,147.461 184.583,147.127 185.5,146.5C 186.518,147.193 187.518,147.859 188.5,148.5 Z"/></g>
<g><path style="opacity:1" fill="#434845" d="M 91.5,149.5 C 91.8333,149.5 92.1667,149.5 92.5,149.5C 92.5,149.833 92.5,150.167 92.5,150.5C 92.5,150.833 92.5,151.167 92.5,151.5C 91.9106,155.971 92.5772,159.971 94.5,163.5C 94.5,163.833 94.5,164.167 94.5,164.5C 94.8925,166.284 95.5592,167.95 96.5,169.5C 94.1711,168.667 92.6711,167 92,164.5C 91.5007,159.511 91.3341,154.511 91.5,149.5 Z"/></g>
<g><path style="opacity:1" fill="#c8e7ef" d="M 154.5,155.5 C 157.764,156.324 161.098,156.658 164.5,156.5C 164.5,157.5 164.5,158.5 164.5,159.5C 161.09,159.543 157.757,159.043 154.5,158C 153.402,157.23 153.402,156.397 154.5,155.5 Z"/></g>
<g><path style="opacity:1" fill="#bdc8c1" d="M 92.5,151.5 C 92.5,151.167 92.5,150.833 92.5,150.5C 93.1667,150.5 93.8333,150.5 94.5,150.5C 94.4372,155.203 94.7705,159.87 95.5,164.5C 95.1667,164.5 94.8333,164.5 94.5,164.5C 94.5,164.167 94.5,163.833 94.5,163.5C 93.9603,159.358 93.2937,155.358 92.5,151.5 Z"/></g>
<g><path style="opacity:1" fill="#719577" d="M 116.5,156.5 C 116.223,154.272 115.223,152.605 113.5,151.5C 113.167,151.5 112.833,151.5 112.5,151.5C 111.713,149.896 110.38,149.229 108.5,149.5C 105.936,155.003 107.603,158.169 113.5,159C 110.964,159.186 108.631,159.686 106.5,160.5C 105.539,162.265 105.205,164.265 105.5,166.5C 102.512,166.845 101.179,165.512 101.5,162.5C 102.793,156.961 104.459,151.627 106.5,146.5C 109.601,146.692 112.601,147.358 115.5,148.5C 117.599,151.066 117.932,153.733 116.5,156.5 Z"/></g>
<g><path style="opacity:1" fill="#7fa985" d="M 112.5,151.5 C 111.5,151.5 110.5,151.5 109.5,151.5C 109.5,153.167 109.5,154.833 109.5,156.5C 110.833,156.5 112.167,156.5 113.5,156.5C 113.5,154.833 113.5,153.167 113.5,151.5C 115.223,152.605 116.223,154.272 116.5,156.5C 116.67,157.822 116.337,158.989 115.5,160C 112.518,160.498 109.518,160.665 106.5,160.5C 108.631,159.686 110.964,159.186 113.5,159C 107.603,158.169 105.936,155.003 108.5,149.5C 110.38,149.229 111.713,149.896 112.5,151.5 Z"/></g>
<g><path style="opacity:1" fill="#bfeac6" d="M 112.5,151.5 C 112.833,151.5 113.167,151.5 113.5,151.5C 113.5,153.167 113.5,154.833 113.5,156.5C 112.167,156.5 110.833,156.5 109.5,156.5C 109.5,154.833 109.5,153.167 109.5,151.5C 110.5,151.5 111.5,151.5 112.5,151.5 Z"/></g>
<g><path style="opacity:1" fill="#232b2e" d="M 147.5,142.5 C 148.735,142.721 149.735,143.388 150.5,144.5C 150.937,156.975 152.27,169.309 154.5,181.5C 153.257,179.036 152.257,176.37 151.5,173.5C 150.833,164.167 150.167,154.833 149.5,145.5C 148.575,144.643 147.908,143.643 147.5,142.5 Z"/></g>
<g><path style="opacity:1" fill="#2b4250" d="M 168.5,155.5 C 167.521,158.625 167.187,161.958 167.5,165.5C 167.167,165.5 166.833,165.5 166.5,165.5C 166.68,161.785 166.346,158.118 165.5,154.5C 166.345,152.477 167.345,152.81 168.5,155.5 Z"/></g>
<g><path style="opacity:1" fill="#102334" d="M 189.5,156.5 C 189.261,158.467 189.594,160.301 190.5,162C 189.473,162.513 188.473,163.013 187.5,163.5C 186.438,161.121 185.105,161.121 183.5,163.5C 181.974,163.006 180.641,162.339 179.5,161.5C 181.893,158.139 185.227,156.473 189.5,156.5 Z"/></g>
<g><path style="opacity:1" fill="#162025" d="M 168.5,155.5 C 170.407,160.903 174.074,162.903 179.5,161.5C 180.641,162.339 181.974,163.006 183.5,163.5C 185.105,161.121 186.438,161.121 187.5,163.5C 187.631,164.376 187.298,165.043 186.5,165.5C 184.018,166.067 181.684,166.734 179.5,167.5C 176.543,167.244 173.876,166.244 171.5,164.5C 169.638,168.068 170.638,170.235 174.5,171C 175.211,172.255 176.044,173.421 177,174.5C 180.106,173.443 180.939,174.443 179.5,177.5C 179.59,179.425 180.59,180.592 182.5,181C 181.549,181.718 181.383,182.551 182,183.5C 184.026,183.915 185.526,184.915 186.5,186.5C 183.833,186.5 181.167,186.5 178.5,186.5C 179.652,182.637 178.319,179.97 174.5,178.5C 173.889,176.225 172.555,174.559 170.5,173.5C 170.065,170.843 169.065,168.509 167.5,166.5C 167.5,166.167 167.5,165.833 167.5,165.5C 167.187,161.958 167.521,158.625 168.5,155.5 Z"/></g>
<g><path style="opacity:1" fill="#131413" d="M 124.5,162.5 C 124.817,165.546 123.484,167.213 120.5,167.5C 120.833,166.5 121.5,165.833 122.5,165.5C 123.167,164.5 123.833,163.5 124.5,162.5 Z"/></g>
<g><path style="opacity:1" fill="#e5f4ea" d="M 121.5,158.5 C 121.5,159.167 121.5,159.833 121.5,160.5C 120.268,165.13 117.268,167.964 112.5,169C 108.83,169.279 105.163,169.112 101.5,168.5C 105.044,167.501 108.544,166.168 112,164.5C 112.414,164.957 112.914,165.291 113.5,165.5C 114.749,163.525 116.249,163.191 118,164.5C 118.006,161.736 119.172,159.736 121.5,158.5 Z"/></g>
<g><path style="opacity:1" fill="#282a29" d="M 120.5,167.5 C 120.5,168.833 119.833,169.5 118.5,169.5C 118.833,168.5 119.5,167.833 120.5,167.5 Z"/></g>
<g><path style="opacity:1" fill="#9bb7c2" d="M 152.5,164.5 C 155.059,164.198 157.393,164.532 159.5,165.5C 157.833,165.5 156.167,165.5 154.5,165.5C 154.5,166.5 154.5,167.5 154.5,168.5C 158.167,168.5 161.833,168.5 165.5,168.5C 165.5,167.5 165.5,166.5 165.5,165.5C 165.833,165.5 166.167,165.5 166.5,165.5C 166.5,166.833 166.5,168.167 166.5,169.5C 161.833,169.5 157.167,169.5 152.5,169.5C 152.5,167.833 152.5,166.167 152.5,164.5 Z"/></g>
<g><path style="opacity:1" fill="#1d1e1d" d="M 96.5,169.5 C 98.4553,169.799 99.7886,170.799 100.5,172.5C 98.5447,172.201 97.2114,171.201 96.5,169.5 Z"/></g>
<g><path style="opacity:1" fill="#9daaa3" d="M 121.5,160.5 C 122.5,160.5 123.5,160.5 124.5,160.5C 123.032,161.779 122.365,163.446 122.5,165.5C 121.5,165.833 120.833,166.5 120.5,167.5C 119.5,167.833 118.833,168.5 118.5,169.5C 112.838,172.072 106.838,173.072 100.5,172.5C 99.7886,170.799 98.4553,169.799 96.5,169.5C 95.5592,167.95 94.8925,166.284 94.5,164.5C 94.8333,164.5 95.1667,164.5 95.5,164.5C 95.5,165.167 95.8333,165.5 96.5,165.5C 97.0483,168.084 98.715,169.084 101.5,168.5C 105.163,169.112 108.83,169.279 112.5,169C 117.268,167.964 120.268,165.13 121.5,160.5 Z"/></g>
<g><path style="opacity:1" fill="#7293a4" d="M 169.5,132.5 C 170.5,132.5 171.5,132.5 172.5,132.5C 172.5,133.833 172.5,135.167 172.5,136.5C 173.833,136.5 175.167,136.5 176.5,136.5C 176.5,136.833 176.5,137.167 176.5,137.5C 175.5,137.5 174.5,137.5 173.5,137.5C 173.5,138.5 173.5,139.5 173.5,140.5C 169.351,139.92 165.684,140.586 162.5,142.5C 161.147,144.128 161.481,145.462 163.5,146.5C 163.158,147.338 162.492,147.672 161.5,147.5C 159.167,147.5 156.833,147.5 154.5,147.5C 154.157,149.483 154.824,150.817 156.5,151.5C 156.804,152.15 157.137,152.817 157.5,153.5C 156.398,154.176 155.398,154.842 154.5,155.5C 153.414,155.62 152.747,156.287 152.5,157.5C 153.037,158.741 153.704,159.908 154.5,161C 153.571,162.077 152.904,163.244 152.5,164.5C 152.5,166.167 152.5,167.833 152.5,169.5C 157.167,169.5 161.833,169.5 166.5,169.5C 166.5,168.167 166.5,166.833 166.5,165.5C 166.833,165.5 167.167,165.5 167.5,165.5C 167.5,165.833 167.5,166.167 167.5,166.5C 167.34,168.199 167.506,169.866 168,171.5C 168.417,172.756 169.25,173.423 170.5,173.5C 172.555,174.559 173.889,176.225 174.5,178.5C 179.099,183.926 177.766,186.592 170.5,186.5C 170.5,186.833 170.5,187.167 170.5,187.5C 167.018,187.172 163.685,187.172 160.5,187.5C 158.37,186.036 157.037,184.036 156.5,181.5C 156.167,181.5 155.833,181.5 155.5,181.5C 155.167,181.5 154.833,181.5 154.5,181.5C 152.27,169.309 150.937,156.975 150.5,144.5C 149.735,143.388 148.735,142.721 147.5,142.5C 147.5,142.167 147.5,141.833 147.5,141.5C 151.466,142.162 155.466,142.495 159.5,142.5C 159.5,141.5 159.5,140.5 159.5,139.5C 162.518,139.665 165.518,139.498 168.5,139C 169.423,136.959 169.756,134.792 169.5,132.5 Z"/></g>
<g><path style="opacity:1" fill="#cdecf6" d="M 159.5,165.5 C 161.5,165.5 163.5,165.5 165.5,165.5C 165.5,166.5 165.5,167.5 165.5,168.5C 161.833,168.5 158.167,168.5 154.5,168.5C 154.5,167.5 154.5,166.5 154.5,165.5C 156.167,165.5 157.833,165.5 159.5,165.5 Z"/></g>
<g><path style="opacity:1" fill="#3c5261" d="M 167.5,166.5 C 169.065,168.509 170.065,170.843 170.5,173.5C 169.25,173.423 168.417,172.756 168,171.5C 167.506,169.866 167.34,168.199 167.5,166.5 Z"/></g>
<g><path style="opacity:1" fill="#141414" d="M 118.5,169.5 C 117.993,170.859 116.993,171.859 115.5,172.5C 110.348,173.814 105.348,173.814 100.5,172.5C 106.838,173.072 112.838,172.072 118.5,169.5 Z"/></g>
<g><path style="opacity:1" fill="#151515" d="M 188.5,148.5 C 189.833,148.5 191.167,148.5 192.5,148.5C 192.646,151.826 191.979,154.993 190.5,158C 191.239,160.254 192.239,162.421 193.5,164.5C 196.353,167.411 199.353,170.078 202.5,172.5C 205.537,173.902 208.537,175.235 211.5,176.5C 211.771,178.821 211.104,180.821 209.5,182.5C 206.651,184.402 203.651,185.902 200.5,187C 190.423,187.191 180.423,187.691 170.5,188.5C 170.5,188.167 170.5,187.833 170.5,187.5C 170.5,187.167 170.5,186.833 170.5,186.5C 173.167,186.5 175.833,186.5 178.5,186.5C 181.167,186.5 183.833,186.5 186.5,186.5C 190.514,186.666 194.514,186.499 198.5,186C 201.899,184.823 205.233,183.656 208.5,182.5C 208.657,181.127 208.49,179.793 208,178.5C 206.015,180.46 203.848,180.293 201.5,178C 200.167,177.333 198.833,177.333 197.5,178C 199.734,178.969 201.734,180.302 203.5,182C 202.833,182.167 202.167,182.333 201.5,182.5C 198.052,180.55 194.385,179.05 190.5,178C 190.957,177.586 191.291,177.086 191.5,176.5C 189.361,174.548 187.028,172.881 184.5,171.5C 185.476,169.877 184.976,168.543 183,167.5C 181.708,168.791 180.542,168.791 179.5,167.5C 181.684,166.734 184.018,166.067 186.5,165.5C 187.298,165.043 187.631,164.376 187.5,163.5C 188.473,163.013 189.473,162.513 190.5,162C 189.594,160.301 189.261,158.467 189.5,156.5C 190.865,154.409 191.532,152.076 191.5,149.5C 190.209,149.737 189.209,149.404 188.5,148.5 Z"/></g>
<g><path style="opacity:1" fill="#b1d1d9" d="M 156.5,181.5 C 155.248,179.661 155.248,177.828 156.5,176C 161.5,175.333 166.5,175.333 171.5,176C 172.337,177.011 172.67,178.178 172.5,179.5C 166.943,179.153 161.61,179.82 156.5,181.5 Z"/></g>
<g><path style="opacity:1" fill="#d4f6f8" d="M 157.5,176.5 C 162.361,176.063 167.028,176.563 171.5,178C 167.833,178.333 164.167,178.667 160.5,179C 158.233,180.608 157.233,179.775 157.5,176.5 Z"/></g>
<g><path style="opacity:1" fill="#40555b" d="M 174.5,178.5 C 178.319,179.97 179.652,182.637 178.5,186.5C 175.833,186.5 173.167,186.5 170.5,186.5C 177.766,186.592 179.099,183.926 174.5,178.5 Z"/></g>
<g><path style="opacity:1" fill="#1e1c1c" d="M 179.5,167.5 C 180.542,168.791 181.708,168.791 183,167.5C 184.976,168.543 185.476,169.877 184.5,171.5C 187.028,172.881 189.361,174.548 191.5,176.5C 191.291,177.086 190.957,177.586 190.5,178C 194.385,179.05 198.052,180.55 201.5,182.5C 202.167,182.333 202.833,182.167 203.5,182C 201.734,180.302 199.734,178.969 197.5,178C 198.833,177.333 200.167,177.333 201.5,178C 203.848,180.293 206.015,180.46 208,178.5C 208.49,179.793 208.657,181.127 208.5,182.5C 205.233,183.656 201.899,184.823 198.5,186C 194.514,186.499 190.514,186.666 186.5,186.5C 185.526,184.915 184.026,183.915 182,183.5C 181.383,182.551 181.549,181.718 182.5,181C 180.59,180.592 179.59,179.425 179.5,177.5C 180.939,174.443 180.106,173.443 177,174.5C 176.044,173.421 175.211,172.255 174.5,171C 170.638,170.235 169.638,168.068 171.5,164.5C 173.876,166.244 176.543,167.244 179.5,167.5 Z"/></g>
<g><path style="opacity:1" fill="#506879" d="M 170.5,187.5 C 170.5,187.833 170.5,188.167 170.5,188.5C 169.167,188.5 167.833,188.5 166.5,188.5C 163.988,190.179 161.988,189.845 160.5,187.5C 163.685,187.172 167.018,187.172 170.5,187.5 Z"/></g>
<g><path style="opacity:1" fill="#151e21" d="M 155.5,181.5 C 155.833,181.5 156.167,181.5 156.5,181.5C 157.037,184.036 158.37,186.036 160.5,187.5C 161.988,189.845 163.988,190.179 166.5,188.5C 164.721,190.344 162.388,191.01 159.5,190.5C 157.721,187.714 156.388,184.714 155.5,181.5 Z"/></g>
</svg>
